<?xml version="1.0" encoding="utf-8"?>
<!-- Generator: Adobe Illustrator 27.5.0, SVG Export Plug-In . SVG Version: 6.00 Build 0)  -->
<svg version="1.1" id="Capa_1" xmlns="http://www.w3.org/2000/svg" xmlns:xlink="http://www.w3.org/1999/xlink" x="0px" y="0px"
	 viewBox="0 0 2122 2122" style="enable-background:new 0 0 2122 2122;" xml:space="preserve">
<rect x="0.007" y="0.009" style="fill:#F8BE2C;" width="2121.305" height="2121.301"/>
<g style="opacity:0.5;">
	<g>
		<g>
			<g>
				<g>
					<path style="fill:#FFFFFF;" d="M1531.179,143.146c-0.57-0.258-0.809-0.887-0.57-1.422l1.018-2.28
						c0.214-0.556,0.843-0.775,1.378-0.556c0.546,0.244,0.785,0.868,0.565,1.437l-1.004,2.251
						C1532.344,143.126,1531.711,143.39,1531.179,143.146z"/>
				</g>
				<g>
					<path style="fill:#FFFFFF;" d="M1523.389,160.89c-0.546-0.219-0.789-0.843-0.546-1.398l1.925-4.458
						c0.258-0.517,0.882-0.76,1.417-0.517c0.536,0.239,0.78,0.848,0.556,1.398l-1.939,4.424
						C1524.549,160.89,1523.93,161.128,1523.389,160.89z M1527.272,152.008c-0.531-0.219-0.765-0.862-0.55-1.398l1.954-4.424
						c0.229-0.55,0.872-0.809,1.398-0.55c0.536,0.2,0.799,0.843,0.536,1.398l-1.92,4.424
						C1528.442,152.008,1527.823,152.251,1527.272,152.008z"/>
				</g>
			</g>
			<g>
				<g>
					<path style="fill:#FFFFFF;" d="M1567.096,176.963c-0.19-0.551,0.044-1.184,0.609-1.365l2.319-0.92
						c0.555-0.225,1.165,0.053,1.364,0.584c0.234,0.575-0.039,1.184-0.594,1.403l-2.3,0.887
						C1567.934,177.791,1567.321,177.513,1567.096,176.963z"/>
				</g>
				<g>
					<path style="fill:#FFFFFF;" d="M1549.036,184.037c-0.229-0.55,0.054-1.179,0.609-1.364l4.507-1.802
						c0.546-0.19,1.174,0.068,1.403,0.585c0.204,0.594-0.068,1.218-0.619,1.403l-4.516,1.769
						C1549.874,184.851,1549.26,184.573,1549.036,184.037z M1558.069,180.5c-0.214-0.555,0.053-1.179,0.604-1.364l4.502-1.788
						c0.575-0.205,1.198,0.054,1.398,0.609c0.219,0.555-0.063,1.179-0.609,1.364l-4.521,1.769
						C1558.897,181.309,1558.278,181.051,1558.069,180.5z"/>
				</g>
			</g>
			<g>
				<g>
					<path style="fill:#FFFFFF;" d="M1568.597,226.293c0.214-0.536,0.863-0.789,1.388-0.536l2.28,0.979
						c0.545,0.239,0.784,0.868,0.56,1.418c-0.248,0.536-0.863,0.775-1.418,0.555l-2.26-1.018
						C1568.597,227.452,1568.348,226.829,1568.597,226.293z"/>
				</g>
				<g>
					<path style="fill:#FFFFFF;" d="M1550.829,218.517c0.214-0.536,0.848-0.775,1.388-0.536l4.448,1.915
						c0.536,0.258,0.78,0.887,0.555,1.423c-0.238,0.536-0.862,0.794-1.403,0.55l-4.453-1.934
						C1550.829,219.676,1550.575,219.053,1550.829,218.517z M1559.705,222.405c0.224-0.536,0.858-0.775,1.413-0.551l4.434,1.954
						c0.541,0.239,0.784,0.863,0.541,1.398c-0.229,0.55-0.853,0.775-1.379,0.55l-4.463-1.949
						C1559.705,223.584,1559.472,222.936,1559.705,222.405z"/>
				</g>
			</g>
			<g>
				<g>
					<path style="fill:#FFFFFF;" d="M1534.756,262.248c0.551-0.243,1.164,0.034,1.388,0.585l0.916,2.324
						c0.204,0.555-0.073,1.145-0.624,1.364c-0.536,0.224-1.165-0.034-1.364-0.589l-0.916-2.324
						C1533.947,263.057,1534.225,262.448,1534.756,262.248z"/>
				</g>
				<g>
					<path style="fill:#FFFFFF;" d="M1527.706,244.168c0.526-0.225,1.169,0.073,1.374,0.609l1.759,4.516
						c0.214,0.531-0.044,1.16-0.614,1.379c-0.526,0.224-1.145-0.073-1.384-0.624l-1.744-4.502
						C1526.877,244.996,1527.15,244.373,1527.706,244.168z M1531.223,253.176c0.546-0.18,1.159,0.078,1.379,0.614l1.769,4.531
						c0.205,0.55-0.039,1.193-0.595,1.379c-0.565,0.224-1.174-0.073-1.393-0.589l-1.773-4.531
						C1530.405,254.029,1530.683,253.4,1531.223,253.176z"/>
				</g>
			</g>
			<g>
				<g>
					<path style="fill:#FFFFFF;" d="M1485.426,263.739c0.536,0.204,0.78,0.828,0.556,1.418l-1.004,2.251
						c-0.214,0.531-0.863,0.774-1.413,0.55c-0.536-0.238-0.785-0.867-0.536-1.398l1.013-2.289
						C1484.256,263.739,1484.89,263.496,1485.426,263.739z"/>
				</g>
				<g>
					<path style="fill:#FFFFFF;" d="M1493.212,245.937c0.541,0.238,0.784,0.867,0.541,1.437l-1.949,4.424
						c-0.219,0.536-0.853,0.794-1.388,0.57c-0.546-0.258-0.809-0.901-0.546-1.418l1.934-4.443
						C1492.023,245.956,1492.675,245.717,1493.212,245.937z M1489.324,254.818c0.545,0.239,0.779,0.868,0.545,1.418l-1.939,4.463
						c-0.254,0.517-0.872,0.775-1.408,0.517c-0.54-0.225-0.784-0.848-0.56-1.384l1.939-4.438
						C1488.144,254.838,1488.778,254.619,1489.324,254.818z"/>
				</g>
			</g>
			<g>
				<g>
					<path style="fill:#FFFFFF;" d="M1449.5,229.888c0.214,0.55-0.073,1.179-0.6,1.398l-2.333,0.887
						c-0.541,0.219-1.169-0.039-1.384-0.59c-0.205-0.555,0.068-1.179,0.595-1.403l2.329-0.902
						C1448.652,229.055,1449.28,229.352,1449.5,229.888z"/>
				</g>
				<g>
					<path style="fill:#FFFFFF;" d="M1467.545,222.809c0.224,0.57-0.048,1.179-0.584,1.403l-4.522,1.769
						c-0.565,0.185-1.169-0.054-1.393-0.609c-0.204-0.575,0.078-1.159,0.614-1.384l4.511-1.769
						C1466.737,222.015,1467.341,222.273,1467.545,222.809z M1458.532,226.346c0.214,0.555-0.058,1.198-0.614,1.403l-4.521,1.769
						c-0.546,0.185-1.169-0.073-1.374-0.628c-0.214-0.551,0.049-1.14,0.614-1.359l4.492-1.774
						C1457.694,225.518,1458.318,225.815,1458.532,226.346z"/>
				</g>
			</g>
			<g>
				<g>
					<path style="fill:#FFFFFF;" d="M1447.999,180.573c-0.214,0.516-0.868,0.775-1.398,0.555l-2.285-1.013
						c-0.536-0.243-0.77-0.867-0.536-1.423c0.239-0.516,0.867-0.774,1.403-0.516l2.28,0.979
						C1447.999,179.394,1448.247,180.018,1447.999,180.573z"/>
				</g>
				<g>
					<path style="fill:#FFFFFF;" d="M1465.782,188.329c-0.258,0.536-0.882,0.794-1.422,0.555l-4.424-1.954
						c-0.536-0.238-0.799-0.867-0.565-1.398c0.253-0.536,0.867-0.794,1.408-0.536l4.429,1.934
						C1465.753,187.17,1466.026,187.798,1465.782,188.329z M1456.895,184.447c-0.224,0.55-0.882,0.789-1.413,0.55l-4.444-1.954
						c-0.536-0.224-0.774-0.848-0.555-1.403c0.263-0.512,0.867-0.77,1.403-0.551l4.433,1.954
						C1456.895,183.282,1457.129,183.891,1456.895,184.447z"/>
				</g>
			</g>
			<g>
				<g>
					<path style="fill:#FFFFFF;" d="M1481.85,144.602c-0.575,0.225-1.198-0.039-1.398-0.589l-0.906-2.304
						c-0.209-0.57,0.063-1.16,0.59-1.384c0.565-0.219,1.169,0.058,1.398,0.59l0.896,2.324
						C1482.649,143.794,1482.376,144.417,1481.85,144.602z"/>
				</g>
				<g>
					<path style="fill:#FFFFFF;" d="M1488.89,162.683c-0.521,0.219-1.164-0.059-1.365-0.575l-1.769-4.536
						c-0.224-0.55,0.049-1.179,0.599-1.378c0.541-0.239,1.169,0.034,1.369,0.589l1.773,4.517
						C1489.718,161.85,1489.45,162.478,1488.89,162.683z M1485.348,153.669c-0.531,0.185-1.14-0.058-1.359-0.629l-1.759-4.512
						c-0.234-0.536,0.039-1.164,0.604-1.383c0.536-0.204,1.155,0.073,1.374,0.609l1.754,4.511
						C1486.176,152.822,1485.923,153.445,1485.348,153.669z"/>
				</g>
			</g>
		</g>
		<g>
			<g>
				<g>
					<path style="fill:#FFFFFF;" d="M1508.296,145.913c-0.351,0-0.648-0.277-0.648-0.648v-1.53c0-0.346,0.297-0.643,0.648-0.643
						c0.37,0,0.653,0.297,0.653,0.643v1.53C1508.948,145.636,1508.666,145.913,1508.296,145.913z"/>
				</g>
				<path style="fill:#FFFFFF;" d="M1508.296,147.384c-0.351,0-0.648,0.292-0.648,0.644v2.285v0.94v6.027
					c0,0.371,0.297,0.648,0.648,0.648c0.37,0,0.653-0.277,0.653-0.648v-6.027v-0.94v-2.285
					C1508.948,147.677,1508.666,147.384,1508.296,147.384z"/>
			</g>
			<g>
				<g>
					<path style="fill:#FFFFFF;" d="M1548.963,162.77c-0.239-0.277-0.239-0.662,0-0.959l1.091-1.067
						c0.239-0.219,0.663-0.219,0.901,0c0.258,0.277,0.278,0.662,0,0.94l-1.072,1.086
						C1549.645,163.009,1549.211,163.009,1548.963,162.77z"/>
				</g>
				<path style="fill:#FFFFFF;" d="M1547.915,163.784c-0.248-0.278-0.643-0.278-0.911,0l-1.612,1.622l-0.672,0.682l-4.249,4.239
					c-0.263,0.258-0.263,0.682,0,0.94c0.234,0.239,0.663,0.239,0.916,0l4.249-4.259l0.662-0.682l1.617-1.622
					C1548.193,164.466,1548.193,164.042,1547.915,163.784z"/>
			</g>
			<g>
				<g>
					<path style="fill:#FFFFFF;" d="M1565.815,203.423c0-0.351,0.287-0.643,0.653-0.643h1.525c0.356,0,0.648,0.292,0.648,0.643
						c0,0.37-0.292,0.663-0.648,0.663h-1.525C1566.102,204.086,1565.815,203.793,1565.815,203.423z"/>
				</g>
				<path style="fill:#FFFFFF;" d="M1564.344,203.423c0-0.351-0.287-0.643-0.658-0.643h-2.266h-0.964h-6.002
					c-0.351,0-0.653,0.292-0.653,0.643c0,0.37,0.302,0.663,0.653,0.663h6.002h0.964h2.266
					C1564.056,204.086,1564.344,203.793,1564.344,203.423z"/>
			</g>
			<g>
				<g>
					<path style="fill:#FFFFFF;" d="M1548.963,244.114c0.249-0.277,0.682-0.277,0.921,0l1.072,1.067
						c0.278,0.238,0.278,0.643,0,0.921c-0.239,0.238-0.662,0.238-0.901,0l-1.091-1.087
						C1548.724,244.777,1548.724,244.353,1548.963,244.114z"/>
				</g>
				<path style="fill:#FFFFFF;" d="M1547.915,243.043c0.278-0.239,0.278-0.643,0-0.921l-1.617-1.603l-0.662-0.663l-4.249-4.258
					c-0.253-0.258-0.682-0.258-0.916,0c-0.263,0.258-0.263,0.663,0,0.921l4.249,4.239l0.672,0.682l1.612,1.603
					C1547.272,243.32,1547.667,243.32,1547.915,243.043z"/>
			</g>
			<g>
				<g>
					<path style="fill:#FFFFFF;" d="M1508.296,260.957c0.37,0,0.653,0.292,0.653,0.662v1.471c0,0.371-0.283,0.663-0.653,0.663
						c-0.351,0-0.648-0.292-0.648-0.663v-1.471C1507.647,261.25,1507.945,260.957,1508.296,260.957z"/>
				</g>
				<path style="fill:#FFFFFF;" d="M1508.296,259.481c0.37,0,0.653-0.292,0.653-0.643v-2.304v-0.96v-6.002
					c0-0.37-0.283-0.668-0.653-0.668c-0.351,0-0.648,0.297-0.648,0.668v6.002v0.96v2.304
					C1507.647,259.189,1507.945,259.481,1508.296,259.481z"/>
			</g>
			<g>
				<g>
					<path style="fill:#FFFFFF;" d="M1467.624,244.114c0.253,0.239,0.253,0.663,0,0.902l-1.067,1.087
						c-0.268,0.238-0.667,0.238-0.921,0c-0.258-0.278-0.258-0.682,0-0.921l1.077-1.067
						C1466.961,243.837,1467.37,243.837,1467.624,244.114z"/>
				</g>
				<path style="fill:#FFFFFF;" d="M1468.666,243.043c0.268,0.277,0.672,0.277,0.916,0l1.627-1.603l0.672-0.682l4.244-4.239
					c0.249-0.258,0.249-0.663,0-0.921c-0.258-0.258-0.662-0.258-0.931,0l-4.229,4.258l-0.667,0.663l-1.632,1.603
					C1468.417,242.4,1468.417,242.804,1468.666,243.043z"/>
			</g>
			<g>
				<g>
					<path style="fill:#FFFFFF;" d="M1450.776,203.423c0,0.37-0.292,0.663-0.653,0.663h-1.525c-0.351,0-0.648-0.292-0.648-0.663
						c0-0.351,0.297-0.643,0.648-0.643h1.525C1450.484,202.78,1450.776,203.072,1450.776,203.423z"/>
				</g>
				<path style="fill:#FFFFFF;" d="M1452.257,203.423c0,0.37,0.282,0.663,0.653,0.663h2.275h0.96h6.002
					c0.351,0,0.653-0.292,0.653-0.663c0-0.351-0.302-0.643-0.653-0.643h-6.002h-0.96h-2.275
					C1452.54,202.78,1452.257,203.072,1452.257,203.423z"/>
			</g>
			<g>
				<g>
					<path style="fill:#FFFFFF;" d="M1467.624,162.77c-0.253,0.239-0.662,0.239-0.911,0l-1.077-1.086
						c-0.258-0.278-0.258-0.663,0-0.94c0.253-0.219,0.653-0.219,0.921,0l1.067,1.067
						C1467.877,162.108,1467.877,162.493,1467.624,162.77z"/>
				</g>
				<path style="fill:#FFFFFF;" d="M1468.666,163.784c-0.249,0.258-0.249,0.682,0,0.921l1.632,1.622l0.667,0.682l4.229,4.259
					c0.268,0.239,0.672,0.239,0.931,0c0.249-0.258,0.249-0.682,0-0.94l-4.244-4.239l-0.672-0.682l-1.627-1.622
					C1469.338,163.506,1468.934,163.506,1468.666,163.784z"/>
			</g>
		</g>
	</g>
	<g>
		<g>
			<g>
				<g>
					<path style="fill:#FFFFFF;" d="M1466.557,1847.013c-0.531-0.219-0.804-0.867-0.565-1.403l1.009-2.266
						c0.229-0.551,0.857-0.809,1.398-0.551c0.551,0.22,0.794,0.848,0.551,1.398l-1.004,2.285
						C1467.726,1847.013,1467.087,1847.252,1466.557,1847.013z"/>
				</g>
				<g>
					<path style="fill:#FFFFFF;" d="M1458.781,1864.796c-0.541-0.258-0.794-0.867-0.541-1.418l1.92-4.424
						c0.243-0.551,0.867-0.794,1.403-0.551c0.536,0.239,0.789,0.863,0.56,1.398l-1.954,4.439
						C1459.935,1864.777,1459.312,1865.035,1458.781,1864.796z M1462.664,1855.895c-0.541-0.238-0.789-0.848-0.565-1.403
						l1.949-4.439c0.263-0.516,0.877-0.775,1.403-0.555c0.541,0.258,0.789,0.867,0.575,1.418l-1.959,4.429
						C1463.828,1855.895,1463.19,1856.134,1462.664,1855.895z"/>
				</g>
			</g>
			<g>
				<g>
					<path style="fill:#FFFFFF;" d="M1502.478,1880.864c-0.205-0.551,0.068-1.198,0.599-1.384l2.343-0.92
						c0.536-0.2,1.15,0.039,1.354,0.609c0.22,0.551-0.039,1.179-0.599,1.384l-2.314,0.921
						C1503.307,1881.673,1502.693,1881.4,1502.478,1880.864z"/>
				</g>
				<g>
					<path style="fill:#FFFFFF;" d="M1484.423,1887.924c-0.205-0.555,0.068-1.179,0.594-1.384l4.531-1.788
						c0.531-0.2,1.159,0.073,1.383,0.624c0.195,0.536-0.068,1.164-0.614,1.369l-4.511,1.769
						C1485.251,1888.733,1484.647,1888.475,1484.423,1887.924z M1493.465,1884.387c-0.224-0.555,0.029-1.179,0.604-1.369
						l4.492-1.802c0.556-0.205,1.16,0.073,1.384,0.624c0.234,0.536-0.039,1.179-0.585,1.369l-4.512,1.764
						C1494.293,1885.196,1493.66,1884.937,1493.465,1884.387z"/>
				</g>
			</g>
			<g>
				<g>
					<path style="fill:#FFFFFF;" d="M1503.979,1930.18c0.224-0.556,0.848-0.794,1.383-0.556l2.285,0.999
						c0.536,0.239,0.775,0.863,0.556,1.418c-0.249,0.551-0.863,0.77-1.399,0.551l-2.29-1.014
						C1503.979,1931.354,1503.73,1930.73,1503.979,1930.18z"/>
				</g>
				<g>
					<path style="fill:#FFFFFF;" d="M1486.206,1922.399c0.229-0.531,0.867-0.789,1.422-0.531l4.424,1.915
						c0.536,0.258,0.78,0.887,0.561,1.423c-0.239,0.531-0.873,0.789-1.423,0.55l-4.439-1.939
						C1486.206,1923.563,1485.962,1922.935,1486.206,1922.399z M1495.102,1926.306c0.214-0.551,0.848-0.789,1.398-0.57l4.439,1.954
						c0.541,0.239,0.789,0.868,0.555,1.398c-0.234,0.536-0.867,0.794-1.408,0.536l-4.448-1.915
						C1495.102,1927.471,1494.849,1926.823,1495.102,1926.306z"/>
				</g>
			</g>
			<g>
				<g>
					<path style="fill:#FFFFFF;" d="M1470.138,1966.111c0.565-0.219,1.16,0.073,1.384,0.609l0.926,2.343
						c0.199,0.531-0.068,1.14-0.604,1.345c-0.556,0.239-1.189-0.039-1.393-0.609l-0.916-2.305
						C1469.338,1966.944,1469.597,1966.33,1470.138,1966.111z"/>
				</g>
				<g>
					<path style="fill:#FFFFFF;" d="M1463.093,1948.055c0.536-0.205,1.154,0.073,1.364,0.604l1.764,4.516
						c0.224,0.536-0.049,1.179-0.604,1.365c-0.536,0.238-1.16-0.039-1.384-0.59l-1.749-4.517
						C1462.264,1948.883,1462.527,1948.274,1463.093,1948.055z M1466.59,1957.102c0.575-0.224,1.189,0.034,1.393,0.609l1.779,4.511
						c0.219,0.536-0.054,1.145-0.609,1.364c-0.546,0.219-1.17-0.073-1.374-0.589l-1.754-4.531
						C1465.801,1957.931,1466.06,1957.307,1466.59,1957.102z"/>
				</g>
			</g>
			<g>
				<g>
					<path style="fill:#FFFFFF;" d="M1420.803,1967.626c0.536,0.219,0.784,0.863,0.565,1.379l-1.004,2.285
						c-0.234,0.536-0.858,0.775-1.408,0.555c-0.512-0.244-0.794-0.867-0.541-1.403l0.984-2.285
						C1419.644,1967.626,1420.262,1967.368,1420.803,1967.626z"/>
				</g>
				<g>
					<path style="fill:#FFFFFF;" d="M1428.598,1949.838c0.526,0.224,0.789,0.867,0.526,1.422l-1.939,4.424
						c-0.224,0.55-0.863,0.789-1.393,0.55c-0.536-0.238-0.78-0.867-0.551-1.403l1.944-4.419
						C1427.409,1949.838,1428.063,1949.58,1428.598,1949.838z M1424.7,1958.705c0.541,0.258,0.78,0.901,0.556,1.437l-1.939,4.443
						c-0.244,0.531-0.877,0.77-1.413,0.551c-0.536-0.244-0.789-0.867-0.565-1.423l1.949-4.438
						C1423.541,1958.74,1424.16,1958.486,1424.7,1958.705z"/>
				</g>
			</g>
			<g>
				<g>
					<path style="fill:#FFFFFF;" d="M1384.886,1933.77c0.199,0.575-0.078,1.198-0.614,1.383l-2.319,0.921
						c-0.546,0.205-1.159-0.053-1.384-0.609c-0.219-0.55,0.059-1.159,0.6-1.378l2.314-0.926
						C1384.053,1932.942,1384.662,1933.239,1384.886,1933.77z"/>
				</g>
				<g>
					<path style="fill:#FFFFFF;" d="M1402.942,1926.71c0.205,0.556-0.078,1.184-0.604,1.384l-4.521,1.769
						c-0.546,0.224-1.159-0.054-1.379-0.604c-0.205-0.536,0.054-1.164,0.599-1.365l4.522-1.768
						C1402.114,1925.902,1402.718,1926.16,1402.942,1926.71z M1393.899,1930.253c0.234,0.551-0.039,1.179-0.594,1.364l-4.531,1.769
						c-0.536,0.22-1.155-0.073-1.359-0.594c-0.229-0.565,0.039-1.174,0.609-1.398l4.497-1.769
						C1393.071,1929.424,1393.7,1929.702,1393.899,1930.253z"/>
				</g>
			</g>
			<g>
				<g>
					<path style="fill:#FFFFFF;" d="M1383.391,1884.441c-0.229,0.531-0.887,0.789-1.418,0.57l-2.285-1.013
						c-0.536-0.219-0.784-0.881-0.536-1.418c0.229-0.536,0.872-0.76,1.417-0.536l2.276,0.974
						C1383.391,1883.262,1383.629,1883.905,1383.391,1884.441z"/>
				</g>
				<g>
					<path style="fill:#FFFFFF;" d="M1401.159,1892.216c-0.224,0.55-0.867,0.809-1.413,0.55l-4.434-1.954
						c-0.536-0.219-0.779-0.843-0.555-1.398c0.243-0.517,0.867-0.775,1.403-0.536l4.444,1.934
						C1401.159,1891.052,1401.402,1891.666,1401.159,1892.216z M1392.272,1888.348c-0.253,0.531-0.867,0.775-1.422,0.55
						l-4.419-1.954c-0.55-0.238-0.794-0.867-0.56-1.398c0.244-0.536,0.868-0.794,1.413-0.575l4.453,1.959
						C1392.272,1887.15,1392.521,1887.793,1392.272,1888.348z"/>
				</g>
			</g>
			<g>
				<g>
					<path style="fill:#FFFFFF;" d="M1417.227,1848.524c-0.555,0.204-1.179-0.073-1.384-0.609l-0.926-2.319
						c-0.205-0.556,0.068-1.165,0.614-1.404c0.555-0.18,1.179,0.078,1.378,0.609l0.921,2.324
						C1418.036,1847.656,1417.753,1848.285,1417.227,1848.524z"/>
				</g>
				<g>
					<path style="fill:#FFFFFF;" d="M1424.282,1866.565c-0.541,0.219-1.179-0.058-1.374-0.59l-1.759-4.516
						c-0.233-0.57,0.025-1.16,0.595-1.379c0.55-0.239,1.165,0.068,1.359,0.589l1.769,4.531
						C1425.11,1865.737,1424.832,1866.36,1424.282,1866.565z M1420.759,1857.532c-0.555,0.224-1.179-0.034-1.379-0.604l-1.773-4.497
						c-0.224-0.556,0.039-1.179,0.604-1.384c0.541-0.219,1.169,0.039,1.369,0.609l1.759,4.516
						C1421.573,1856.723,1421.295,1857.332,1420.759,1857.532z"/>
				</g>
			</g>
		</g>
		<g>
			<g>
				<g>
					<path style="fill:#FFFFFF;" d="M1443.692,1849.795c-0.37,0-0.662-0.297-0.662-0.643v-1.535c0-0.365,0.292-0.643,0.662-0.643
						c0.341,0,0.643,0.278,0.643,0.643v1.535C1444.335,1849.498,1444.033,1849.795,1443.692,1849.795z"/>
				</g>
				<path style="fill:#FFFFFF;" d="M1443.692,1851.271c-0.37,0-0.662,0.292-0.662,0.644v2.304v0.955v5.992
					c0,0.346,0.292,0.644,0.662,0.644c0.341,0,0.643-0.297,0.643-0.644v-5.992v-0.955v-2.304
					C1444.335,1851.564,1444.033,1851.271,1443.692,1851.271z"/>
			</g>
			<g>
				<g>
					<path style="fill:#FFFFFF;" d="M1484.354,1866.638c-0.248-0.258-0.248-0.662,0-0.901l1.072-1.092
						c0.244-0.258,0.663-0.258,0.926,0c0.234,0.258,0.263,0.663,0,0.921l-1.092,1.072
						C1485.017,1866.896,1484.612,1866.896,1484.354,1866.638z"/>
				</g>
				<path style="fill:#FFFFFF;" d="M1483.326,1867.671c-0.277-0.239-0.677-0.239-0.95,0l-1.617,1.622l-0.662,0.682l-4.254,4.239
					c-0.239,0.277-0.239,0.682,0,0.94c0.278,0.238,0.662,0.238,0.921,0l4.258-4.259l0.663-0.662l1.642-1.642
					C1483.565,1868.353,1483.565,1867.929,1483.326,1867.671z"/>
			</g>
			<g>
				<g>
					<path style="fill:#FFFFFF;" d="M1501.212,1907.325c0-0.365,0.282-0.663,0.653-0.663h1.511c0.356,0,0.653,0.297,0.653,0.663
						c0,0.351-0.297,0.648-0.653,0.648h-1.511C1501.494,1907.973,1501.212,1907.675,1501.212,1907.325z"/>
				</g>
				<path style="fill:#FFFFFF;" d="M1499.721,1907.325c0-0.365-0.292-0.663-0.648-0.663h-2.266h-0.974h-5.993
					c-0.361,0-0.663,0.297-0.663,0.663c0,0.351,0.302,0.648,0.663,0.648h5.993h0.974h2.266
					C1499.428,1907.973,1499.721,1907.675,1499.721,1907.325z"/>
			</g>
			<g>
				<g>
					<path style="fill:#FFFFFF;" d="M1484.354,1947.996c0.258-0.277,0.663-0.277,0.906,0l1.092,1.072
						c0.263,0.254,0.263,0.682,0,0.921c-0.263,0.253-0.682,0.253-0.926,0l-1.072-1.092
						C1484.106,1948.659,1484.106,1948.235,1484.354,1947.996z"/>
				</g>
				<path style="fill:#FFFFFF;" d="M1483.326,1946.944c0.239-0.253,0.239-0.662,0-0.921l-1.642-1.617l-0.663-0.668l-4.258-4.253
					c-0.258-0.239-0.643-0.239-0.921,0c-0.239,0.258-0.239,0.662,0,0.921l4.254,4.239l0.662,0.682l1.617,1.617
					C1482.649,1947.203,1483.049,1947.203,1483.326,1946.944z"/>
			</g>
			<g>
				<g>
					<path style="fill:#FFFFFF;" d="M1443.692,1964.825c0.341,0,0.643,0.312,0.643,0.662v1.53c0,0.351-0.302,0.643-0.643,0.643
						c-0.37,0-0.662-0.292-0.662-0.643v-1.53C1443.03,1965.136,1443.322,1964.825,1443.692,1964.825z"/>
				</g>
				<path style="fill:#FFFFFF;" d="M1443.692,1963.368c0.341,0,0.643-0.297,0.643-0.643v-2.29v-0.974v-6.007
					c0-0.351-0.302-0.643-0.643-0.643c-0.37,0-0.662,0.292-0.662,0.643v6.007v0.974v2.29
					C1443.03,1963.071,1443.322,1963.368,1443.692,1963.368z"/>
			</g>
			<g>
				<g>
					<path style="fill:#FFFFFF;" d="M1403.02,1947.996c0.244,0.239,0.244,0.663,0,0.901l-1.082,1.092
						c-0.263,0.253-0.672,0.253-0.925,0c-0.263-0.239-0.263-0.667,0-0.921l1.092-1.072
						C1402.338,1947.719,1402.742,1947.719,1403.02,1947.996z"/>
				</g>
				<path style="fill:#FFFFFF;" d="M1404.043,1946.944c0.263,0.259,0.667,0.259,0.916,0l1.637-1.617l0.672-0.682l4.229-4.239
					c0.273-0.259,0.273-0.663,0-0.921c-0.253-0.239-0.648-0.239-0.916,0l-4.239,4.253l-0.682,0.668l-1.617,1.617
					C1403.8,1946.282,1403.8,1946.691,1404.043,1946.944z"/>
			</g>
			<g>
				<g>
					<path style="fill:#FFFFFF;" d="M1386.153,1907.325c0,0.351-0.283,0.648-0.643,0.648h-1.52c-0.361,0-0.658-0.297-0.658-0.648
						c0-0.365,0.297-0.663,0.658-0.663h1.52C1385.87,1906.662,1386.153,1906.959,1386.153,1907.325z"/>
				</g>
				<path style="fill:#FFFFFF;" d="M1387.629,1907.325c0,0.351,0.297,0.648,0.653,0.648h2.285h0.969h5.988
					c0.36,0,0.652-0.297,0.652-0.648c0-0.365-0.292-0.663-0.652-0.663h-5.988h-0.969h-2.285
					C1387.927,1906.662,1387.629,1906.959,1387.629,1907.325z"/>
			</g>
			<g>
				<g>
					<path style="fill:#FFFFFF;" d="M1403.02,1866.638c-0.277,0.259-0.682,0.259-0.915,0l-1.092-1.072
						c-0.263-0.258-0.263-0.662,0-0.921c0.253-0.258,0.662-0.258,0.925,0l1.082,1.092
						C1403.264,1865.975,1403.264,1866.38,1403.02,1866.638z"/>
				</g>
				<path style="fill:#FFFFFF;" d="M1404.043,1867.671c-0.243,0.258-0.243,0.682,0,0.921l1.617,1.642l0.682,0.662l4.239,4.259
					c0.268,0.238,0.663,0.238,0.916,0c0.273-0.258,0.273-0.663,0-0.94l-4.229-4.239l-0.672-0.682l-1.608-1.622
					C1404.71,1867.432,1404.306,1867.432,1404.043,1867.671z"/>
			</g>
		</g>
	</g>
	<g>
		<g>
			<g>
				<g>
					<path style="fill:#FFFFFF;" d="M361.987,1072.005c-0.536-0.219-0.794-0.882-0.536-1.398l0.974-2.285
						c0.249-0.555,0.877-0.794,1.413-0.555c0.541,0.244,0.78,0.853,0.56,1.403l-0.999,2.285
						C363.147,1072.005,362.518,1072.243,361.987,1072.005z"/>
				</g>
				<g>
					<path style="fill:#FFFFFF;" d="M354.216,1089.773c-0.541-0.238-0.784-0.867-0.56-1.403l1.944-4.419
						c0.253-0.555,0.872-0.794,1.408-0.575c0.546,0.238,0.789,0.867,0.546,1.418l-1.93,4.443
						C355.385,1089.773,354.752,1090.031,354.216,1089.773z M358.104,1080.891c-0.55-0.224-0.804-0.853-0.55-1.403l1.949-4.443
						c0.215-0.531,0.848-0.77,1.413-0.57c0.536,0.258,0.775,0.886,0.536,1.442l-1.949,4.419
						C359.278,1080.872,358.65,1081.13,358.104,1080.891z"/>
				</g>
			</g>
			<g>
				<g>
					<path style="fill:#FFFFFF;" d="M397.928,1105.841c-0.229-0.555,0.054-1.179,0.609-1.383l2.299-0.921
						c0.565-0.2,1.189,0.073,1.393,0.609c0.224,0.555-0.058,1.179-0.609,1.378l-2.304,0.926
						C398.756,1106.65,398.128,1106.392,397.928,1105.841z"/>
				</g>
				<g>
					<path style="fill:#FFFFFF;" d="M379.867,1112.881c-0.229-0.516,0.049-1.145,0.609-1.345l4.507-1.788
						c0.551-0.205,1.179,0.073,1.374,0.629c0.229,0.516-0.049,1.159-0.609,1.359l-4.487,1.769
						C380.695,1113.729,380.072,1113.466,379.867,1112.881z M388.89,1109.378c-0.204-0.555,0.063-1.179,0.594-1.379l4.536-1.773
						c0.551-0.219,1.155,0.058,1.384,0.609c0.19,0.516-0.063,1.164-0.609,1.365l-4.526,1.769
						C389.719,1110.187,389.114,1109.933,388.89,1109.378z"/>
				</g>
			</g>
			<g>
				<g>
					<path style="fill:#FFFFFF;" d="M399.404,1155.156c0.254-0.536,0.882-0.775,1.408-0.536l2.285,0.974
						c0.536,0.258,0.779,0.887,0.56,1.422c-0.248,0.551-0.863,0.789-1.408,0.551l-2.28-0.994
						C399.429,1156.316,399.19,1155.707,399.404,1155.156z"/>
				</g>
				<g>
					<path style="fill:#FFFFFF;" d="M381.65,1147.375c0.234-0.516,0.858-0.775,1.393-0.516l4.444,1.959
						c0.55,0.219,0.794,0.823,0.55,1.359c-0.238,0.556-0.853,0.814-1.379,0.556l-4.458-1.915
						C381.665,1148.559,381.407,1147.931,381.65,1147.375z M390.513,1151.283c0.249-0.55,0.882-0.77,1.418-0.55l4.453,1.934
						c0.536,0.239,0.779,0.887,0.536,1.418c-0.214,0.536-0.843,0.775-1.388,0.536l-4.448-1.939
						C390.547,1152.462,390.294,1151.818,390.513,1151.283z"/>
				</g>
			</g>
			<g>
				<g>
					<path style="fill:#FFFFFF;" d="M365.587,1191.107c0.551-0.224,1.169,0.054,1.389,0.609l0.896,2.319
						c0.224,0.536-0.048,1.16-0.609,1.365c-0.541,0.219-1.159-0.054-1.378-0.59l-0.897-2.319
						C364.759,1191.935,365.051,1191.311,365.587,1191.107z"/>
				</g>
				<g>
					<path style="fill:#FFFFFF;" d="M358.508,1173.046c0.565-0.2,1.159,0.058,1.383,0.609l1.779,4.511
						c0.204,0.536-0.073,1.164-0.609,1.384c-0.551,0.204-1.169-0.073-1.393-0.589l-1.764-4.531
						C357.709,1173.874,357.968,1173.251,358.508,1173.046z M362.045,1182.079c0.565-0.205,1.169,0.053,1.384,0.604l1.783,4.535
						c0.2,0.516-0.078,1.14-0.604,1.365c-0.565,0.219-1.179-0.078-1.393-0.629l-1.764-4.497
						C361.246,1182.907,361.504,1182.279,362.045,1182.079z"/>
				</g>
			</g>
			<g>
				<g>
					<path style="fill:#FFFFFF;" d="M316.258,1192.598c0.541,0.224,0.78,0.853,0.541,1.403l-0.999,2.285
						c-0.234,0.551-0.862,0.77-1.393,0.551c-0.55-0.258-0.799-0.863-0.55-1.398l0.989-2.285
						C315.088,1192.598,315.712,1192.359,316.258,1192.598z"/>
				</g>
				<g>
					<path style="fill:#FFFFFF;" d="M324.024,1174.834c0.536,0.243,0.779,0.848,0.57,1.398l-1.954,4.443
						c-0.258,0.536-0.867,0.789-1.413,0.551c-0.541-0.239-0.779-0.863-0.541-1.398l1.925-4.478
						C322.85,1174.834,323.478,1174.576,324.024,1174.834z M320.156,1183.697c0.531,0.243,0.77,0.867,0.531,1.422l-1.954,4.439
						c-0.21,0.536-0.848,0.794-1.379,0.555c-0.555-0.238-0.784-0.867-0.555-1.403l1.934-4.458
						C318.967,1183.716,319.619,1183.458,320.156,1183.697z"/>
				</g>
			</g>
			<g>
				<g>
					<path style="fill:#FFFFFF;" d="M280.311,1158.766c0.225,0.551-0.048,1.179-0.609,1.384l-2.304,0.921
						c-0.556,0.181-1.16-0.078-1.379-0.629c-0.2-0.531,0.053-1.159,0.585-1.383l2.343-0.882
						C279.483,1157.938,280.107,1158.211,280.311,1158.766z"/>
				</g>
				<g>
					<path style="fill:#FFFFFF;" d="M298.368,1151.707c0.234,0.536-0.044,1.164-0.595,1.364l-4.526,1.769
						c-0.531,0.219-1.15-0.039-1.359-0.604c-0.229-0.536,0.03-1.164,0.604-1.364l4.516-1.774
						C297.544,1150.879,298.178,1151.156,298.368,1151.707z M289.349,1155.229c0.2,0.551-0.063,1.16-0.6,1.379l-4.521,1.749
						c-0.546,0.224-1.169-0.034-1.393-0.585c-0.195-0.555,0.068-1.164,0.609-1.384l4.526-1.768
						C288.526,1154.415,289.13,1154.674,289.349,1155.229z"/>
				</g>
			</g>
			<g>
				<g>
					<path style="fill:#FFFFFF;" d="M278.84,1109.437c-0.263,0.531-0.877,0.789-1.413,0.551l-2.29-1.014
						c-0.531-0.224-0.779-0.867-0.531-1.398c0.224-0.517,0.838-0.775,1.383-0.536l2.285,0.975
						C278.811,1108.272,279.05,1108.901,278.84,1109.437z"/>
				</g>
				<g>
					<path style="fill:#FFFFFF;" d="M296.604,1117.193c-0.248,0.55-0.872,0.809-1.413,0.55l-4.453-1.934
						c-0.526-0.219-0.78-0.848-0.526-1.384c0.215-0.55,0.863-0.789,1.394-0.55l4.434,1.934
						C296.585,1116.033,296.823,1116.657,296.604,1117.193z M287.717,1113.319c-0.253,0.556-0.872,0.775-1.398,0.556l-4.438-1.954
						c-0.565-0.239-0.814-0.868-0.565-1.398c0.234-0.536,0.867-0.775,1.413-0.555l4.424,1.954
						C287.703,1112.16,287.941,1112.803,287.717,1113.319z"/>
				</g>
			</g>
			<g>
				<g>
					<path style="fill:#FFFFFF;" d="M312.653,1073.5c-0.546,0.2-1.16-0.058-1.365-0.609l-0.921-2.324
						c-0.219-0.531,0.044-1.159,0.609-1.398c0.536-0.185,1.16,0.073,1.384,0.629l0.901,2.319
						C313.481,1072.667,313.203,1073.281,312.653,1073.5z"/>
				</g>
				<g>
					<path style="fill:#FFFFFF;" d="M319.732,1091.542c-0.56,0.219-1.174-0.039-1.388-0.57l-1.774-4.516
						c-0.195-0.575,0.068-1.179,0.595-1.403c0.565-0.219,1.179,0.078,1.393,0.609l1.783,4.517
						C320.531,1090.728,320.262,1091.337,319.732,1091.542z M316.189,1082.528c-0.536,0.205-1.169-0.054-1.383-0.609l-1.778-4.497
						c-0.2-0.55,0.068-1.179,0.638-1.379c0.536-0.239,1.15,0.034,1.354,0.589l1.778,4.517
						C317.018,1081.7,316.745,1082.323,316.189,1082.528z"/>
				</g>
			</g>
		</g>
		<g>
			<g>
				<g>
					<path style="fill:#FFFFFF;" d="M339.127,1074.767c-0.351,0-0.658-0.292-0.658-0.624v-1.53c0-0.371,0.307-0.644,0.658-0.644
						c0.37,0,0.653,0.273,0.653,0.644v1.53C339.78,1074.475,339.497,1074.767,339.127,1074.767z"/>
				</g>
				<path style="fill:#FFFFFF;" d="M339.127,1076.243c-0.351,0-0.658,0.297-0.658,0.667v2.285v0.955v6.007
					c0,0.351,0.307,0.648,0.658,0.648c0.37,0,0.653-0.297,0.653-0.648v-6.007v-0.955v-2.285
					C339.78,1076.541,339.497,1076.243,339.127,1076.243z"/>
			</g>
			<g>
				<g>
					<path style="fill:#FFFFFF;" d="M379.804,1091.634c-0.277-0.258-0.277-0.663,0-0.906l1.067-1.087
						c0.258-0.273,0.648-0.273,0.926,0c0.239,0.239,0.239,0.682,0,0.926l-1.072,1.067
						C380.477,1091.873,380.043,1091.873,379.804,1091.634z"/>
				</g>
				<path style="fill:#FFFFFF;" d="M378.747,1092.667c-0.249-0.239-0.663-0.239-0.916,0l-1.612,1.603l-0.668,0.697l-4.258,4.239
					c-0.244,0.259-0.244,0.663,0,0.921c0.233,0.258,0.682,0.258,0.916,0l4.258-4.239l0.663-0.663l1.617-1.637
					C379.02,1093.349,379.02,1092.906,378.747,1092.667z"/>
			</g>
			<g>
				<g>
					<path style="fill:#FFFFFF;" d="M396.632,1132.306c0-0.37,0.287-0.648,0.668-0.648h1.5c0.361,0,0.678,0.278,0.678,0.648
						c0,0.365-0.317,0.662-0.678,0.662h-1.5C396.92,1132.969,396.632,1132.671,396.632,1132.306z"/>
				</g>
				<path style="fill:#FFFFFF;" d="M395.175,1132.306c0-0.37-0.278-0.648-0.643-0.648h-2.29h-0.96h-6.027
					c-0.351,0-0.643,0.278-0.643,0.648c0,0.365,0.292,0.662,0.643,0.662h6.027h0.96h2.29
					C394.898,1132.969,395.175,1132.671,395.175,1132.306z"/>
			</g>
			<g>
				<g>
					<path style="fill:#FFFFFF;" d="M379.804,1172.973c0.239-0.273,0.673-0.273,0.921,0l1.072,1.072
						c0.239,0.273,0.239,0.677,0,0.921c-0.277,0.239-0.668,0.239-0.926,0l-1.067-1.072
						C379.527,1173.655,379.527,1173.212,379.804,1172.973z"/>
				</g>
				<path style="fill:#FFFFFF;" d="M378.747,1171.94c0.273-0.273,0.273-0.677,0-0.935l-1.617-1.603l-0.663-0.687l-4.258-4.239
					c-0.234-0.253-0.682-0.253-0.916,0c-0.244,0.258-0.244,0.668,0,0.901l4.258,4.258l0.668,0.668l1.612,1.637
					C378.099,1172.184,378.498,1172.184,378.747,1171.94z"/>
			</g>
			<g>
				<g>
					<path style="fill:#FFFFFF;" d="M339.127,1189.835c0.37,0,0.653,0.278,0.653,0.644v1.53c0,0.351-0.283,0.629-0.653,0.629
						c-0.351,0-0.658-0.278-0.658-0.629v-1.53C338.47,1190.113,338.776,1189.835,339.127,1189.835z"/>
				</g>
				<path style="fill:#FFFFFF;" d="M339.127,1188.359c0.37,0,0.653-0.292,0.653-0.662v-2.285v-0.955v-6.012
					c0-0.346-0.283-0.643-0.653-0.643c-0.351,0-0.658,0.297-0.658,0.643v6.012v0.955v2.285
					C338.47,1188.067,338.776,1188.359,339.127,1188.359z"/>
			</g>
			<g>
				<g>
					<path style="fill:#FFFFFF;" d="M298.456,1172.973c0.248,0.238,0.248,0.682,0,0.92l-1.101,1.072
						c-0.234,0.239-0.634,0.239-0.906,0c-0.243-0.244-0.243-0.648,0-0.921l1.077-1.072
						C297.792,1172.701,298.197,1172.701,298.456,1172.973z"/>
				</g>
				<path style="fill:#FFFFFF;" d="M299.498,1171.94c0.244,0.244,0.663,0.244,0.916,0l1.608-1.637l0.672-0.668l4.258-4.258
					c0.263-0.234,0.263-0.643,0-0.901c-0.253-0.253-0.658-0.253-0.926,0l-4.248,4.239l-0.682,0.687l-1.598,1.603
					C299.235,1171.263,299.235,1171.667,299.498,1171.94z"/>
			</g>
			<g>
				<g>
					<path style="fill:#FFFFFF;" d="M281.608,1132.306c0,0.365-0.292,0.662-0.653,0.662h-1.53c-0.351,0-0.634-0.297-0.634-0.662
						c0-0.37,0.283-0.648,0.634-0.648h1.53C281.315,1131.658,281.608,1131.936,281.608,1132.306z"/>
				</g>
				<path style="fill:#FFFFFF;" d="M283.079,1132.306c0,0.365,0.292,0.662,0.653,0.662h2.28h0.955h6.012
					c0.351,0,0.653-0.297,0.653-0.662c0-0.37-0.302-0.648-0.653-0.648h-6.012h-0.955h-2.28
					C283.371,1131.658,283.079,1131.936,283.079,1132.306z"/>
			</g>
			<g>
				<g>
					<path style="fill:#FFFFFF;" d="M298.456,1091.634c-0.259,0.239-0.663,0.239-0.931,0l-1.077-1.067
						c-0.243-0.244-0.243-0.687,0-0.926c0.273-0.273,0.672-0.273,0.906,0l1.101,1.087
						C298.704,1090.971,298.704,1091.376,298.456,1091.634z"/>
				</g>
				<path style="fill:#FFFFFF;" d="M299.498,1092.667c-0.263,0.238-0.263,0.682,0,0.921l1.598,1.637l0.682,0.663l4.248,4.239
					c0.268,0.258,0.673,0.258,0.926,0c0.263-0.258,0.263-0.662,0-0.921l-4.258-4.239l-0.672-0.697l-1.608-1.603
					C300.161,1092.428,299.742,1092.428,299.498,1092.667z"/>
			</g>
		</g>
	</g>
	<g>
		<g>
			<path style="fill:#FFFFFF;" d="M1816,633.421c0-3.352,9.583-6.08,21.452-6.08h50.075c11.854,0,21.466,2.728,21.466,6.08
				c0,3.391-9.612,6.081-21.466,6.081h-50.075C1825.584,639.502,1816,636.812,1816,633.421z"/>
		</g>
		<path style="fill:#FFFFFF;" d="M1767.45,633.421c0-3.352-9.632-6.08-21.501-6.08h-75.444h-31.298h-198.22
			c-11.863,0-21.462,2.728-21.462,6.08c0,3.391,9.598,6.081,21.462,6.081h198.22h31.298h75.444
			C1757.818,639.502,1767.45,636.812,1767.45,633.421z"/>
	</g>
	<g>
		<g>
			<path style="fill:#FFFFFF;" d="M891.97,1663.341c0-3.357,9.603-6.08,21.457-6.08h50.08c11.873,0,21.442,2.723,21.442,6.08
				c0,3.372-9.569,6.1-21.442,6.1h-50.08C901.573,1669.441,891.97,1666.713,891.97,1663.341z"/>
		</g>
		<path style="fill:#FFFFFF;" d="M843.405,1663.341c0-3.357-9.588-6.08-21.457-6.08h-75.463h-31.283H516.987
			c-11.863,0-21.476,2.723-21.476,6.08c0,3.372,9.613,6.1,21.476,6.1h198.215h31.283h75.463
			C833.817,1669.441,843.405,1666.713,843.405,1663.341z"/>
	</g>
	<g>
		<g>
			<path style="fill:#FFFFFF;" d="M525.659,1363.905c0-3.352,9.603-6.081,21.471-6.081h50.07c11.868,0,21.466,2.729,21.466,6.081
				c0,3.391-9.598,6.119-21.466,6.119h-50.07C535.262,1370.024,525.659,1367.296,525.659,1363.905z"/>
		</g>
		<path style="fill:#FFFFFF;" d="M477.084,1363.905c0-3.352-9.583-6.081-21.452-6.081H380.17h-31.279h-198.22
			c-11.859,0-21.471,2.729-21.471,6.081c0,3.391,9.612,6.119,21.471,6.119h198.22h31.279h75.463
			C467.501,1370.024,477.084,1367.296,477.084,1363.905z"/>
	</g>
	<g>
		<g>
			<path style="fill:#FFFFFF;" d="M570.316,263.924c-0.024-2.767,9.891-4.994,22.236-4.994l52.034,0.073
				c12.302,0.034,22.333,2.285,22.402,5.047c0.029,2.762-9.881,5.013-22.207,4.974l-52.053-0.034
				C580.421,268.971,570.384,266.706,570.316,263.924z"/>
		</g>
		<g>
			<path style="fill:#FFFFFF;" d="M164.727,263.388c-0.068-2.743,9.866-4.994,22.187-4.955l101.407,0.093
				c12.312,0.034,22.363,2.299,22.417,5.081c0.048,2.767-9.895,4.98-22.212,4.98l-101.412-0.132
				C174.792,268.441,164.795,266.17,164.727,263.388z M367.512,263.666c-0.049-2.748,9.915-5.013,22.216-4.994l101.397,0.146
				c12.326,0.02,22.343,2.285,22.387,5.033c0.097,2.782-9.876,5.013-22.182,4.994l-101.407-0.112
				C377.602,268.714,367.575,266.448,367.512,263.666z"/>
		</g>
	</g>
	<g>
		<g>
			<path style="fill:#FFFFFF;" d="M1092.947,1956.732c-0.058-2.782,9.895-5.013,22.207-4.994l52.058,0.073
				c12.307,0,22.324,2.266,22.378,5.067c0.048,2.748-9.886,4.994-22.197,4.974l-52.058-0.088
				C1103.018,1961.765,1092.991,1959.514,1092.947,1956.732z"/>
		</g>
		<g>
			<path style="fill:#FFFFFF;" d="M687.343,1956.196c-0.078-2.762,9.88-4.994,22.226-4.974l101.387,0.132
				c12.297,0.02,22.334,2.266,22.402,5.047c0.048,2.748-9.881,4.994-22.232,4.974l-101.383-0.107
				C697.399,1961.229,687.402,1958.983,687.343,1956.196z M890.148,1956.474c-0.049-2.782,9.885-4.994,22.216-4.994l101.397,0.132
				c12.312,0.02,22.334,2.285,22.382,5.028c0.063,2.787-9.89,5.013-22.197,4.994l-101.387-0.127
				C900.213,1961.506,890.216,1959.236,890.148,1956.474z"/>
		</g>
	</g>
	<g>
		<g>
			<path style="fill:#FFFFFF;" d="M1895.464,1752.53c-0.034-2.763,9.895-4.97,22.211-4.97l52.053,0.068
				c12.312,0,22.329,2.271,22.392,5.052c0.044,2.743-9.9,4.974-22.206,4.974l-52.058-0.073
				C1905.544,1757.582,1895.513,1755.316,1895.464,1752.53z"/>
		</g>
		<g>
			<path style="fill:#FFFFFF;" d="M1489.869,1752.013c-0.078-2.762,9.891-5.008,22.217-4.969l101.387,0.127
				c12.322,0,22.344,2.271,22.406,5.033c0.044,2.782-9.885,5.009-22.216,4.994l-101.397-0.132
				C1499.926,1757.046,1489.928,1754.78,1489.869,1752.013z M1692.664,1752.276c-0.039-2.787,9.9-4.994,22.207-4.994l101.412,0.166
				c12.307,0,22.334,2.266,22.387,5.033c0.058,2.762-9.895,5.009-22.207,4.989l-101.397-0.127
				C1702.749,1757.304,1692.703,1755.058,1692.664,1752.276z"/>
		</g>
	</g>
	<g>
		<g>
			<path style="fill:#FFFFFF;" d="M1867.123,1272.87c-0.029-2.762,9.91-4.974,22.227-4.974l52.039,0.073
				c12.302,0.019,22.333,2.266,22.392,5.047c0.024,2.787-9.886,5.014-22.193,4.979l-52.073-0.073
				C1877.203,1277.922,1867.177,1275.671,1867.123,1272.87z"/>
		</g>
		<g>
			<path style="fill:#FFFFFF;" d="M1461.504,1272.334c-0.053-2.724,9.881-4.994,22.246-4.955l101.388,0.112
				c12.297,0.039,22.343,2.285,22.411,5.067c0.029,2.748-9.9,4.994-22.236,4.994l-101.417-0.146
				C1471.589,1277.386,1461.587,1275.121,1461.504,1272.334z M1664.328,1272.612c-0.049-2.762,9.895-4.974,22.197-4.974
				l101.422,0.151c12.307,0,22.339,2.246,22.382,5.028c0.068,2.747-9.885,4.993-22.202,4.993l-101.412-0.127
				C1674.394,1277.664,1664.367,1275.394,1664.328,1272.612z"/>
		</g>
	</g>
	<g>
		<g>
			<path style="fill:#FFFFFF;" d="M534.818,815.729c-0.049-2.748,9.9-4.994,22.207-4.994l52.058,0.073
				c12.312,0.019,22.309,2.285,22.378,5.052c0.029,2.762-9.89,5.009-22.188,4.994l-52.073-0.078
				C544.899,820.762,534.867,818.511,534.818,815.729z"/>
		</g>
		<g>
			<path style="fill:#FFFFFF;" d="M129.2,815.213c-0.058-2.782,9.9-5.013,22.207-4.994l101.407,0.132
				c12.297,0,22.343,2.266,22.411,5.067c0.049,2.762-9.915,4.974-22.226,4.974l-101.387-0.146
				C139.275,820.246,129.278,817.995,129.2,815.213z M331.985,815.456c-0.01-2.748,9.915-4.979,22.231-4.979l101.417,0.146
				c12.312,0,22.339,2.251,22.373,5.047c0.073,2.767-9.885,5.013-22.207,4.979l-101.378-0.146
				C342.08,820.504,332.053,818.253,331.985,815.456z"/>
		</g>
	</g>
	<g>
		<g>
			<path style="fill:#FFFFFF;" d="M1888.57,941.516c0-1.198,3.396-2.153,7.581-2.153h17.632c4.175,0,7.566,0.955,7.566,2.153
				c0,1.198-3.391,2.119-7.566,2.119h-17.632C1891.965,943.635,1888.57,942.714,1888.57,941.516z"/>
		</g>
		<g>
			<path style="fill:#FFFFFF;" d="M1939.946,889.331c1.184,0,2.158,3.372,2.158,7.552v17.642c0,4.199-0.974,7.551-2.158,7.551
				c-1.193,0-2.148-3.352-2.148-7.551v-17.642C1937.797,892.703,1938.752,889.331,1939.946,889.331z"/>
		</g>
		<g>
			<path style="fill:#FFFFFF;" d="M1992.12,940.688c0,1.184-3.376,2.158-7.547,2.158h-17.661c-4.166,0-7.542-0.974-7.542-2.158
				c0-1.194,3.376-2.153,7.542-2.153h17.661C1988.744,938.535,1992.12,939.494,1992.12,940.688z"/>
		</g>
		<g>
			<path style="fill:#FFFFFF;" d="M1940.759,992.897c-1.169,0-2.124-3.411-2.124-7.576v-17.637c0-4.2,0.955-7.571,2.124-7.571
				c1.198,0,2.144,3.372,2.144,7.571v17.637C1942.903,989.486,1941.958,992.897,1940.759,992.897z"/>
		</g>
		<g>
			<path style="fill:#FFFFFF;" d="M1914.411,915.553c0.575-0.59,2.743,0.59,4.803,2.689l8.78,8.794
				c2.075,2.041,3.284,4.219,2.709,4.808c-0.604,0.59-2.758-0.589-4.853-2.689l-8.76-8.794
				C1915.006,918.32,1913.797,916.143,1914.411,915.553z"/>
		</g>
		<g>
			<path style="fill:#FFFFFF;" d="M1965.909,915.149c0.575,0.604-0.624,2.723-2.709,4.828l-8.765,8.77
				c-2.061,2.1-4.239,3.279-4.809,2.675c-0.609-0.575,0.59-2.728,2.68-4.814l8.77-8.77
				C1963.151,915.752,1965.305,914.559,1965.909,915.149z"/>
		</g>
		<g>
			<path style="fill:#FFFFFF;" d="M1966.313,966.676c-0.58,0.55-2.762-0.648-4.843-2.714l-8.765-8.789
				c-2.095-2.08-3.264-4.239-2.694-4.809c0.59-0.589,2.753,0.59,4.818,2.67l8.789,8.775
				C1965.675,963.908,1966.888,966.081,1966.313,966.676z"/>
		</g>
		<g>
			<path style="fill:#FFFFFF;" d="M1914.816,967.041c-0.59-0.555,0.594-2.723,2.67-4.794l8.794-8.804
				c2.075-2.081,4.253-3.279,4.823-2.694c0.584,0.594-0.624,2.767-2.69,4.833l-8.789,8.785
				C1917.558,966.451,1915.386,967.63,1914.816,967.041z"/>
		</g>
	</g>
	<g>
		<g>
			<path style="fill:#FFFFFF;" d="M214.13,1905.171c0-1.199,3.381-2.154,7.561-2.154h17.637c4.185,0,7.552,0.955,7.552,2.154
				c0,1.179-3.367,2.153-7.552,2.153h-17.637C217.511,1907.325,214.13,1906.35,214.13,1905.171z"/>
		</g>
		<g>
			<path style="fill:#FFFFFF;" d="M265.491,1853.001c1.189,0,2.154,3.372,2.154,7.557v17.656c0,4.141-0.965,7.518-2.154,7.518
				c-1.188,0-2.153-3.377-2.153-7.518v-17.656C263.337,1856.373,264.302,1853.001,265.491,1853.001z"/>
		</g>
		<g>
			<path style="fill:#FFFFFF;" d="M317.661,1904.343c0,1.218-3.377,2.154-7.537,2.154h-17.661c-4.171,0-7.542-0.936-7.542-2.154
				c0-1.159,3.371-2.139,7.542-2.139h17.661C314.284,1902.204,317.661,1903.183,317.661,1904.343z"/>
		</g>
		<g>
			<path style="fill:#FFFFFF;" d="M266.319,1956.547c-1.184,0-2.143-3.391-2.143-7.571v-17.636c0-4.205,0.959-7.571,2.143-7.571
				c1.169,0,2.124,3.366,2.124,7.571v17.636C268.443,1953.156,267.488,1956.547,266.319,1956.547z"/>
		</g>
		<g>
			<path style="fill:#FFFFFF;" d="M239.956,1879.208c0.575-0.59,2.733,0.624,4.813,2.708l8.765,8.77
				c2.095,2.08,3.304,4.219,2.709,4.809c-0.604,0.609-2.767-0.609-4.828-2.69l-8.779-8.77
				C240.565,1881.951,239.352,1879.812,239.956,1879.208z"/>
		</g>
		<g>
			<path style="fill:#FFFFFF;" d="M291.459,1878.798c0.585,0.609-0.633,2.767-2.709,4.833l-8.779,8.789
				c-2.056,2.061-4.229,3.259-4.814,2.67c-0.604-0.57,0.604-2.728,2.685-4.808l8.775-8.789
				C288.706,1879.427,290.855,1878.214,291.459,1878.798z"/>
		</g>
		<g>
			<path style="fill:#FFFFFF;" d="M291.858,1930.306c-0.585,0.609-2.757-0.604-4.833-2.689l-8.779-8.77
				c-2.08-2.085-3.289-4.258-2.67-4.848c0.57-0.575,2.748,0.643,4.828,2.724l8.745,8.775
				C291.23,1927.578,292.433,1929.717,291.858,1930.306z"/>
		</g>
		<g>
			<path style="fill:#FFFFFF;" d="M240.361,1930.71c-0.614-0.59,0.585-2.762,2.68-4.809l8.78-8.789
				c2.085-2.061,4.258-3.279,4.838-2.709c0.56,0.609-0.633,2.767-2.713,4.848l-8.77,8.77
				C243.104,1930.106,240.936,1931.32,240.361,1930.71z"/>
		</g>
	</g>
	<g>
		<g>
			<path style="fill:#FFFFFF;" d="M809.968,286.94c0-1.179,3.381-2.139,7.576-2.139h17.632c4.185,0,7.557,0.96,7.557,2.139
				c0,1.179-3.372,2.139-7.557,2.139h-17.632C813.349,289.079,809.968,288.119,809.968,286.94z"/>
		</g>
		<g>
			<path style="fill:#FFFFFF;" d="M861.344,234.77c1.169,0,2.134,3.371,2.134,7.537v17.657c0,4.161-0.965,7.556-2.134,7.556
				c-1.198,0-2.153-3.396-2.153-7.556v-17.657C859.191,238.141,860.146,234.77,861.344,234.77z"/>
		</g>
		<g>
			<path style="fill:#FFFFFF;" d="M913.504,286.131c0,1.179-3.381,2.139-7.561,2.139h-17.637c-4.161,0-7.537-0.96-7.537-2.139
				c0-1.198,3.376-2.139,7.537-2.139h17.637C910.123,283.992,913.504,284.933,913.504,286.131z"/>
		</g>
		<g>
			<path style="fill:#FFFFFF;" d="M862.133,338.282c-1.189,0-2.114-3.357-2.114-7.537v-17.637c0-4.185,0.925-7.556,2.114-7.556
				c1.199,0,2.163,3.372,2.163,7.556v17.637C864.296,334.925,863.332,338.282,862.133,338.282z"/>
		</g>
		<g>
			<path style="fill:#FFFFFF;" d="M835.805,260.972c0.58-0.565,2.719,0.648,4.809,2.694l8.765,8.77
				c2.085,2.085,3.284,4.258,2.714,4.848c-0.609,0.57-2.753-0.629-4.838-2.69l-8.77-8.77
				C836.394,263.739,835.196,261.566,835.805,260.972z"/>
		</g>
		<g>
			<path style="fill:#FFFFFF;" d="M887.268,260.568c0.614,0.589-0.594,2.767-2.675,4.848l-8.78,8.77
				c-2.075,2.085-4.229,3.284-4.813,2.694c-0.595-0.594,0.609-2.762,2.689-4.848l8.775-8.77
				C884.545,261.216,886.684,259.997,887.268,260.568z"/>
		</g>
		<g>
			<path style="fill:#FFFFFF;" d="M887.707,312.075c-0.609,0.59-2.753-0.629-4.838-2.69l-8.78-8.775
				c-2.095-2.06-3.293-4.239-2.68-4.823c0.575-0.594,2.734,0.604,4.813,2.685l8.77,8.775
				C887.069,309.327,888.286,311.485,887.707,312.075z"/>
		</g>
		<g>
			<path style="fill:#FFFFFF;" d="M836.209,312.479c-0.609-0.589,0.585-2.762,2.68-4.808l8.765-8.775
				c2.09-2.1,4.239-3.298,4.833-2.704c0.585,0.59-0.614,2.743-2.708,4.828l-8.76,8.77
				C838.923,311.855,836.789,313.069,836.209,312.479z"/>
		</g>
	</g>
	<g>
		<g>
			<path style="fill:#FFFFFF;" d="M350.265,532.506c-3.099,0-6.061-1.71-7.532-4.677c-2.047-4.127-0.356-9.179,3.79-11.24
				l53.71-26.646l-53.71-26.684c-4.146-2.066-5.837-7.098-3.79-11.24c2.065-4.151,7.108-5.866,11.254-3.781l68.847,34.168
				c2.86,1.418,4.672,4.326,4.672,7.537c0,3.167-1.812,6.081-4.672,7.518l-68.847,34.163
				C352.779,532.214,351.522,532.506,350.265,532.506z"/>
		</g>
		<g>
			<path style="fill:#FFFFFF;" d="M262.519,532.506c-1.247,0-2.514-0.292-3.722-0.882l-68.842-34.163
				c-2.85-1.437-4.658-4.351-4.658-7.518c0-3.21,1.807-6.119,4.658-7.537l68.842-34.168c4.166-2.085,9.208-0.371,11.26,3.781
				c2.056,4.141,0.365,9.174-3.796,11.24l-53.69,26.684l53.69,26.646c4.161,2.06,5.852,7.113,3.796,11.24
				C268.589,530.796,265.608,532.506,262.519,532.506z"/>
		</g>
		<g>
			<path style="fill:#FFFFFF;" d="M293.008,566.304c-0.536,0-1.092-0.049-1.627-0.161c-4.556-0.906-7.503-5.311-6.621-9.861
				l26.796-135.999c0.892-4.55,5.306-7.517,9.856-6.596c4.551,0.882,7.513,5.291,6.621,9.841l-26.806,135.999
				C300.443,563.522,296.935,566.304,293.008,566.304z"/>
		</g>
	</g>
	<g>
		<g>
			<path style="fill:#FFFFFF;" d="M1897.593,320.44c-2.139,0-4.19-1.179-5.214-3.24c-1.442-2.879-0.258-6.377,2.626-7.815
				l37.296-18.504l-37.296-18.538c-2.884-1.437-4.068-4.921-2.626-7.815c1.428-2.875,4.921-4.053,7.82-2.616l47.8,23.737
				c1.988,0.994,3.235,3.026,3.235,5.232c0,2.212-1.247,4.239-3.24,5.233l-47.795,23.722
				C1899.357,320.24,1898.479,320.44,1897.593,320.44z"/>
		</g>
		<g>
			<path style="fill:#FFFFFF;" d="M1836.667,320.44c-0.872,0-1.754-0.2-2.582-0.604l-47.829-23.722
				c-1.988-0.994-3.235-3.021-3.235-5.233c0-2.207,1.247-4.239,3.235-5.232l47.829-23.737c2.879-1.437,6.372-0.258,7.81,2.616
				c1.427,2.894,0.253,6.377-2.631,7.815l-37.301,18.538l37.301,18.504c2.884,1.437,4.058,4.936,2.631,7.815
				C1840.882,319.261,1838.807,320.44,1836.667,320.44z"/>
		</g>
		<g>
			<path style="fill:#FFFFFF;" d="M1857.837,343.919c-0.39,0-0.765-0.034-1.14-0.112c-3.157-0.624-5.223-3.683-4.589-6.855
				l18.592-94.445c0.624-3.148,3.683-5.214,6.855-4.585c3.152,0.624,5.218,3.683,4.594,6.835l-18.602,94.465
				C1863.001,342.004,1860.555,343.919,1857.837,343.919z"/>
		</g>
	</g>
	<g>
		<g>
			<path style="fill:#FFFFFF;" d="M796.092,1859.228c-2.139,0-4.204-1.179-5.218-3.24c-1.432-2.875-0.253-6.378,2.631-7.815
				l37.286-18.5l-37.286-18.523c-2.885-1.437-4.063-4.936-2.631-7.83c1.428-2.875,4.921-4.054,7.805-2.616l47.815,23.756
				c1.988,0.97,3.235,3.001,3.235,5.213c0,2.207-1.257,4.239-3.235,5.233l-47.815,23.717
				C797.852,1859.028,796.964,1859.228,796.092,1859.228z"/>
		</g>
		<g>
			<path style="fill:#FFFFFF;" d="M735.158,1859.228c-0.872,0-1.754-0.2-2.587-0.604l-47.819-23.717
				c-1.993-0.994-3.244-3.026-3.244-5.233c0-2.212,1.252-4.243,3.244-5.213l47.819-23.756c2.894-1.437,6.387-0.258,7.82,2.636
				c1.422,2.875,0.254,6.373-2.636,7.81l-37.315,18.523l37.315,18.5c2.889,1.437,4.058,4.921,2.636,7.815
				C739.367,1858.048,737.306,1859.228,735.158,1859.228z"/>
		</g>
		<g>
			<path style="fill:#FFFFFF;" d="M756.322,1882.706c-0.375,0-0.74-0.034-1.14-0.112c-3.147-0.624-5.213-3.683-4.589-6.855
				l18.602-94.44c0.629-3.172,3.688-5.198,6.85-4.609c3.157,0.629,5.213,3.688,4.594,6.855l-18.601,94.445
				C761.486,1880.791,759.05,1882.706,756.322,1882.706z"/>
		</g>
	</g>
	<g>
		<g>
			<path style="fill:#FFFFFF;" d="M1817.847,1574.797c-2.154,0-4.297-0.848-5.934-2.471l-76.842-76.842
				c-3.274-3.284-3.274-8.59,0-11.868c3.284-3.284,8.585-3.284,11.883,0l76.828,76.842c3.284,3.279,3.284,8.589,0,11.868
				C1822.144,1573.949,1819.995,1574.797,1817.847,1574.797z"/>
		</g>
		<g>
			<path style="fill:#FFFFFF;" d="M1741.024,1574.797c-2.153,0-4.316-0.848-5.953-2.471c-3.274-3.279-3.274-8.589,0-11.868
				l76.842-76.842c3.274-3.284,8.59-3.284,11.868,0c3.284,3.279,3.284,8.585,0,11.868l-76.828,76.842
				C1745.302,1573.949,1743.158,1574.797,1741.024,1574.797z"/>
		</g>
	</g>
	<g>
		<g>
			<path style="fill:#FFFFFF;" d="M307.147,1662.089c-1.237,0-2.475-0.463-3.41-1.398l-44.287-44.287
				c-1.885-1.881-1.885-4.94,0-6.836c1.9-1.9,4.96-1.9,6.84,0l44.282,44.263c1.875,1.9,1.875,4.979,0,6.86
				C309.627,1661.627,308.384,1662.089,307.147,1662.089z"/>
		</g>
		<g>
			<path style="fill:#FFFFFF;" d="M262.87,1662.089c-1.237,0-2.48-0.463-3.42-1.398c-1.885-1.881-1.885-4.96,0-6.86l44.287-44.263
				c1.886-1.9,4.941-1.9,6.836,0c1.875,1.895,1.875,4.955,0,6.836l-44.282,44.287
				C265.354,1661.627,264.112,1662.089,262.87,1662.089z"/>
		</g>
	</g>
	<g>
		<g>
			<path style="fill:#FFFFFF;" d="M1943.478,535.035c-1.237,0-2.475-0.477-3.41-1.418l-44.277-44.267
				c-1.89-1.895-1.89-4.975,0-6.855c1.89-1.881,4.95-1.881,6.84,0l44.268,44.287c1.88,1.895,1.88,4.955,0,6.835
				C1945.953,534.557,1944.715,535.035,1943.478,535.035z"/>
		</g>
		<g>
			<path style="fill:#FFFFFF;" d="M1899.205,535.035c-1.247,0-2.48-0.477-3.415-1.418c-1.89-1.88-1.89-4.94,0-6.835l44.277-44.287
				c1.871-1.881,4.95-1.881,6.831,0c1.88,1.88,1.88,4.96,0,6.855l-44.268,44.267
				C1901.676,534.557,1900.448,535.035,1899.205,535.035z"/>
		</g>
	</g>
	<g>
		<path style="fill:#FFFFFF;" d="M1813.145,1958.097c-25.262,0-45.812-20.531-45.812-45.793c0-25.247,20.55-45.812,45.812-45.812
			c25.267,0,45.812,20.565,45.812,45.812C1858.957,1937.565,1838.412,1958.097,1813.145,1958.097z M1813.145,1878.672
			c-18.548,0-33.642,15.094-33.642,33.632c0,18.558,15.094,33.632,33.642,33.632s33.642-15.074,33.642-33.632
			C1846.787,1893.766,1831.693,1878.672,1813.145,1878.672z"/>
	</g>
	<g>
		<path style="fill:#FFFFFF;" d="M239.805,1323.808c-25.271,0-45.827-20.531-45.827-45.778c0-25.281,20.556-45.831,45.827-45.831
			c25.247,0,45.807,20.55,45.807,45.831C285.612,1303.276,265.052,1323.808,239.805,1323.808z M239.805,1244.383
			c-18.568,0-33.646,15.074-33.646,33.647c0,18.524,15.079,33.617,33.646,33.617c18.543,0,33.637-15.094,33.637-33.617
			C273.442,1259.457,258.348,1244.383,239.805,1244.383z"/>
	</g>
	<g>
		<path style="fill:#FFFFFF;" d="M1159.612,161.499c-11.669,0-21.15-9.491-21.15-21.135c0-11.664,9.481-21.154,21.15-21.154
			c11.634,0,21.135,9.49,21.135,21.154C1180.747,152.008,1171.246,161.499,1159.612,161.499z M1159.612,124.846
			c-8.56,0-15.527,6.967-15.527,15.517c0,8.551,6.967,15.513,15.527,15.513c8.546,0,15.522-6.962,15.522-15.513
			C1175.134,131.814,1168.157,124.846,1159.612,124.846z"/>
	</g>
	<path style="fill:#FFFFFF;" d="M348.735,989.818c0-15.544-4.331-30.095-11.844-42.516c-0.137-0.258-0.29-0.509-0.465-0.738
		c-14.536-23.461-40.504-39.127-70.072-39.127c-29.564,0-55.53,15.666-70.065,39.12c-0.185,0.244-0.346,0.501-0.484,0.777
		c-7.5,12.412-11.827,26.953-11.827,42.484c0,15.162,4.134,29.367,11.308,41.583c-0.015,0.171-0.049,0.336-0.049,0.511
		c0,2.234,1.445,4.107,3.442,4.792c14.889,21.427,39.666,35.491,67.676,35.491c28.014,0,52.791-14.063,67.68-35.491
		c1.998-0.687,3.442-2.56,3.442-4.792c0-0.173-0.034-0.341-0.051-0.509C344.599,1019.187,348.735,1004.979,348.735,989.818z
		 M194.349,994.904h23.001c0.4,11.486,2.141,22.263,4.972,31.922h-17.936C198.717,1017.367,195.163,1006.51,194.349,994.904z
		 M203.289,954.714h18.492c-2.511,9.164-4.059,19.281-4.431,30.017h-23.001C195.109,973.896,198.259,963.716,203.289,954.714z
		 M338.362,984.731h-23.001c-0.373-10.735-1.919-20.852-4.431-30.017h18.492C334.452,963.716,337.602,973.896,338.362,984.731z
		 M305.169,984.731h-33.727v-30.017h28.745C302.979,963.762,304.743,973.961,305.169,984.731z M271.442,944.539v-26.263
		c9.925,2.531,18.801,12.299,24.969,26.263H271.442z M261.267,918.279v26.261h-24.969
		C242.468,930.576,251.342,920.807,261.267,918.279z M261.267,954.714v30.017h-33.725c0.426-10.77,2.19-20.969,4.982-30.017H261.267
		z M227.542,994.904h33.725v31.922h-28.144C229.981,1017.316,227.998,1006.431,227.542,994.904z M261.267,1037.001v24.353
		c-9.464-2.412-17.971-11.413-24.09-24.353H261.267z M271.442,1061.357v-24.355h24.092
		C289.415,1049.941,280.909,1058.943,271.442,1061.357z M271.442,1026.826v-31.922h33.727c-0.456,11.527-2.439,22.411-5.584,31.922
		H271.442z M315.361,994.904h23.001c-0.814,11.605-4.368,22.462-10.039,31.922h-17.934
		C313.22,1017.167,314.961,1006.39,315.361,994.904z M322.543,944.539h-14.95c-3.028-7.849-6.835-14.741-11.252-20.38
		C306.582,928.856,315.542,935.87,322.543,944.539z M236.37,924.159c-4.419,5.639-8.224,12.531-11.254,20.38h-14.947
		C217.167,935.87,226.13,928.854,236.37,924.159z M211.769,1037.001h14.104c2.897,7.062,6.438,13.293,10.497,18.475
		C226.892,1051.13,218.514,1044.794,211.769,1037.001z M296.341,1055.476c4.059-5.182,7.598-11.413,10.497-18.475h14.102
		C314.197,1044.794,305.817,1051.13,296.341,1055.476z"/>
	<path style="fill:#FFFFFF;" d="M1865.401,783.607c0-15.544-4.331-30.095-11.844-42.516c-0.136-0.258-0.29-0.509-0.465-0.738
		c-14.536-23.461-40.504-39.128-70.072-39.128c-29.564,0-55.529,15.666-70.065,39.121c-0.185,0.244-0.346,0.501-0.485,0.777
		c-7.5,12.412-11.827,26.953-11.827,42.484c0,15.162,4.134,29.367,11.308,41.583c-0.015,0.171-0.049,0.336-0.049,0.511
		c0,2.234,1.445,4.107,3.442,4.792c14.889,21.427,39.666,35.493,67.675,35.493c28.015,0,52.792-14.065,67.68-35.493
		c1.998-0.687,3.443-2.56,3.443-4.792c0-0.173-0.034-0.341-0.051-0.509C1861.264,812.977,1865.401,798.769,1865.401,783.607z
		 M1711.015,788.694h23.001c0.399,11.486,2.141,22.263,4.972,31.922h-17.936C1715.382,811.157,1711.828,800.299,1711.015,788.694z
		 M1719.955,748.504h18.492c-2.511,9.164-4.058,19.281-4.431,30.017h-23.001C1711.775,767.686,1714.925,757.506,1719.955,748.504z
		 M1855.028,778.521h-23.001c-0.373-10.735-1.92-20.852-4.431-30.017h18.492C1851.118,757.506,1854.268,767.686,1855.028,778.521z
		 M1821.835,778.521h-33.727v-30.017h28.746C1819.645,757.552,1821.408,767.752,1821.835,778.521z M1788.108,738.329v-26.263
		c9.925,2.531,18.802,12.299,24.969,26.263H1788.108z M1777.932,712.069v26.261h-24.969
		C1759.134,724.366,1768.008,714.597,1777.932,712.069z M1777.932,748.504v30.017h-33.725c0.427-10.77,2.19-20.969,4.982-30.017
		H1777.932z M1744.208,788.694h33.725v31.922h-28.143C1746.646,811.106,1744.663,800.221,1744.208,788.694z M1777.932,830.791
		v24.353c-9.464-2.412-17.971-11.413-24.09-24.353H1777.932z M1788.108,855.147v-24.355h24.092
		C1806.081,843.731,1797.574,852.732,1788.108,855.147z M1788.108,820.616v-31.922h33.727c-0.455,11.527-2.439,22.411-5.583,31.922
		H1788.108z M1832.027,788.694h23.001c-0.814,11.605-4.368,22.462-10.039,31.922h-17.934
		C1829.886,810.957,1831.627,800.18,1832.027,788.694z M1839.208,738.329h-14.95c-3.028-7.849-6.835-14.74-11.252-20.38
		C1823.248,722.646,1832.207,729.659,1839.208,738.329z M1753.036,717.949c-4.419,5.64-8.224,12.531-11.255,20.38h-14.948
		C1733.833,729.659,1742.795,722.643,1753.036,717.949z M1728.435,830.791h14.105c2.896,7.062,6.438,13.293,10.497,18.475
		C1743.558,844.92,1735.18,838.584,1728.435,830.791z M1813.007,849.266c4.058-5.182,7.598-11.413,10.497-18.475h14.102
		C1830.863,838.584,1822.483,844.92,1813.007,849.266z"/>
	<path style="fill:#FFFFFF;" d="M1676.394,1961.633c0-7.634-2.129-14.786-5.82-20.891c-0.068-0.127-0.142-0.248-0.229-0.36
		c-7.143-11.532-19.903-19.225-34.431-19.225c-14.524,0-27.284,7.693-34.426,19.22c-0.09,0.117-0.171,0.244-0.239,0.38
		c-3.683,6.099-5.81,13.242-5.81,20.876c0,7.45,2.031,14.426,5.557,20.429c-0.008,0.087-0.024,0.166-0.024,0.253
		c0,1.102,0.709,2.017,1.69,2.358c7.316,10.524,19.491,17.437,33.252,17.437c13.766,0,25.941-6.913,33.257-17.437
		c0.982-0.341,1.691-1.257,1.691-2.358c0-0.083-0.017-0.166-0.025-0.248C1674.362,1976.064,1676.394,1969.083,1676.394,1961.633z
		 M1600.536,1964.133h11.301c0.198,5.642,1.053,10.938,2.444,15.688h-8.812C1602.682,1975.173,1600.936,1969.833,1600.536,1964.133z
		 M1604.928,1944.386h9.086c-1.232,4.502-1.993,9.476-2.178,14.748h-11.301C1600.909,1953.809,1602.458,1948.806,1604.928,1944.386z
		 M1671.298,1959.134h-11.301c-0.185-5.272-0.945-10.246-2.178-14.748h9.087C1669.375,1948.806,1670.925,1953.809,1671.298,1959.134
		z M1654.988,1959.134h-16.572v-14.748h14.124C1653.912,1948.829,1654.779,1953.843,1654.988,1959.134z M1638.416,1939.383v-12.901
		c4.877,1.243,9.237,6.042,12.268,12.901H1638.416z M1633.417,1926.481v12.901h-12.271
		C1624.18,1932.523,1628.541,1927.724,1633.417,1926.481z M1633.417,1944.386v14.748h-16.573c0.21-5.291,1.077-10.305,2.448-14.748
		H1633.417z M1616.845,1964.133h16.573v15.688h-13.829C1618.044,1975.143,1617.069,1969.794,1616.845,1964.133z M1633.417,1984.82
		v11.966c-4.65-1.188-8.83-5.613-11.837-11.966H1633.417z M1638.416,1996.785v-11.966h11.836
		C1647.247,1991.172,1643.067,1995.597,1638.416,1996.785z M1638.416,1979.821v-15.688h16.572
		c-0.224,5.661-1.198,11.011-2.743,15.688H1638.416z M1659.997,1964.133h11.301c-0.4,5.7-2.146,11.04-4.933,15.688h-8.811
		C1658.945,1975.071,1659.8,1969.775,1659.997,1964.133z M1663.525,1939.383h-7.345c-1.488-3.854-3.359-7.24-5.53-10.007
		C1655.683,1931.68,1660.084,1935.125,1663.525,1939.383z M1621.183,1929.375c-2.17,2.767-4.041,6.153-5.529,10.007h-7.345
		C1611.749,1935.125,1616.151,1931.68,1621.183,1929.375z M1609.096,1984.82h6.931c1.422,3.469,3.162,6.529,5.157,9.072
		C1616.526,1991.757,1612.409,1988.649,1609.096,1984.82z M1650.65,1993.891c1.995-2.543,3.734-5.603,5.157-9.072h6.931
		C1659.425,1988.649,1655.305,1991.757,1650.65,1993.891z"/>
	<path style="fill:#FFFFFF;" d="M517.561,171.445c0-7.637-2.129-14.787-5.82-20.891c-0.068-0.127-0.141-0.249-0.229-0.361
		c-7.142-11.53-19.902-19.225-34.431-19.225c-14.524,0-27.284,7.695-34.426,19.221c-0.09,0.119-0.171,0.246-0.239,0.382
		c-3.683,6.098-5.81,13.242-5.81,20.874c0,7.45,2.032,14.429,5.556,20.431c-0.007,0.085-0.025,0.166-0.025,0.253
		c0,1.096,0.709,2.017,1.691,2.353c7.315,10.528,19.491,17.439,33.252,17.439c13.766,0,25.941-6.911,33.257-17.439
		c0.981-0.339,1.69-1.257,1.69-2.353c0-0.085-0.017-0.168-0.024-0.251C515.53,185.876,517.561,178.895,517.561,171.445z
		 M441.703,173.945h11.301c0.197,5.644,1.052,10.938,2.443,15.685h-8.811C443.85,184.982,442.103,179.647,441.703,173.945z
		 M446.096,154.198h9.086c-1.233,4.502-1.993,9.474-2.178,14.747h-11.301C442.077,163.62,443.626,158.62,446.096,154.198z
		 M512.465,168.946h-11.301c-0.185-5.274-0.945-10.246-2.178-14.747h9.086C510.543,158.62,512.093,163.62,512.465,168.946z
		 M496.156,168.946h-16.572v-14.747h14.124C495.08,158.641,495.947,163.655,496.156,168.946z M479.584,149.197v-12.903
		c4.877,1.242,9.238,6.044,12.268,12.903H479.584z M474.585,136.293v12.903h-12.27C465.348,142.337,469.708,137.536,474.585,136.293
		z M474.585,154.198v14.747h-16.572c0.21-5.291,1.077-10.304,2.448-14.747H474.585z M458.013,173.945h16.572v15.685h-13.829
		C459.211,184.955,458.237,179.608,458.013,173.945z M474.585,194.629v11.966c-4.651-1.184-8.831-5.608-11.837-11.966H474.585z
		 M479.584,206.597v-11.968h11.837C488.414,200.987,484.234,205.411,479.584,206.597z M479.584,189.63v-15.685h16.572
		c-0.224,5.663-1.198,11.011-2.743,15.685H479.584z M501.165,173.945h11.301c-0.399,5.702-2.146,11.038-4.933,15.685h-8.811
		C500.112,184.883,500.968,179.589,501.165,173.945z M504.692,149.197h-7.344c-1.489-3.856-3.36-7.242-5.53-10.012
		C496.851,141.492,501.253,144.939,504.692,149.197z M462.351,139.185c-2.17,2.77-4.041,6.156-5.53,10.012h-7.344
		C452.917,144.939,457.318,141.492,462.351,139.185z M450.264,194.629h6.93c1.423,3.469,3.162,6.531,5.157,9.077
		C457.694,201.572,453.577,198.459,450.264,194.629z M491.818,203.706c1.995-2.545,3.734-5.608,5.157-9.077h6.93
		C500.592,198.459,496.473,201.572,491.818,203.706z"/>
	<path style="fill:#FFFFFF;" d="M1362.504,321.916c0-7.637-2.129-14.786-5.82-20.891c-0.068-0.126-0.141-0.249-0.229-0.36
		c-7.142-11.53-19.902-19.225-34.43-19.225c-14.524,0-27.284,7.695-34.426,19.22c-0.09,0.119-0.171,0.246-0.239,0.383
		c-3.683,6.097-5.81,13.242-5.81,20.874c0,7.449,2.031,14.429,5.557,20.431c-0.007,0.085-0.024,0.166-0.024,0.253
		c0,1.097,0.709,2.017,1.69,2.353c7.316,10.529,19.491,17.44,33.252,17.44c13.766,0,25.941-6.911,33.257-17.44
		c0.982-0.338,1.691-1.257,1.691-2.353c0-0.085-0.017-0.168-0.024-0.25C1360.472,336.347,1362.504,329.366,1362.504,321.916z
		 M1286.646,324.416h11.301c0.197,5.645,1.052,10.938,2.444,15.686h-8.812C1288.792,335.453,1287.046,330.119,1286.646,324.416z
		 M1291.038,304.669h9.086c-1.232,4.502-1.993,9.474-2.178,14.748h-11.301C1287.019,314.092,1288.568,309.091,1291.038,304.669z
		 M1357.408,319.417h-11.301c-0.185-5.274-0.945-10.246-2.178-14.748h9.087C1355.486,309.091,1357.035,314.092,1357.408,319.417z
		 M1341.098,319.417h-16.573v-14.748h14.124C1340.022,309.112,1340.889,314.126,1341.098,319.417z M1324.526,299.668v-12.904
		c4.877,1.243,9.238,6.044,12.268,12.904H1324.526z M1319.527,286.764v12.904h-12.271
		C1310.29,292.808,1314.651,288.007,1319.527,286.764z M1319.527,304.669v14.748h-16.572c0.209-5.291,1.077-10.305,2.448-14.748
		H1319.527z M1302.955,324.416h16.572v15.686h-13.829C1304.154,335.427,1303.179,330.08,1302.955,324.416z M1319.527,345.1v11.966
		c-4.65-1.184-8.83-5.608-11.837-11.966H1319.527z M1324.526,357.068V345.1h11.837
		C1333.357,351.458,1329.177,355.882,1324.526,357.068z M1324.526,340.102v-15.686h16.573c-0.224,5.664-1.198,11.011-2.743,15.686
		H1324.526z M1346.107,324.416h11.301c-0.4,5.703-2.146,11.038-4.933,15.686h-8.811
		C1345.055,335.353,1345.91,330.06,1346.107,324.416z M1349.635,299.668h-7.345c-1.488-3.857-3.359-7.242-5.53-10.012
		C1341.793,291.963,1346.195,295.41,1349.635,299.668z M1307.293,289.656c-2.17,2.77-4.041,6.156-5.53,10.012h-7.344
		C1297.859,295.41,1302.261,291.963,1307.293,289.656z M1295.206,345.1h6.931c1.422,3.469,3.161,6.531,5.157,9.077
		C1302.636,352.043,1298.519,348.93,1295.206,345.1z M1336.76,354.177c1.995-2.546,3.734-5.608,5.157-9.077h6.93
		C1345.535,348.93,1341.415,352.043,1336.76,354.177z"/>
	<path style="fill:#FFFFFF;" d="M461.74,1708.418c-13.922-8.312-28.316-10.553-41.622-6.47
		c-15.06,4.619-27.593,16.838-36.248,35.342c-4.149,8.867-6.534,19.81-6.544,30.012c-0.009,12.063,3.16,22.704,9.162,30.762
		c10.026,13.457,25.822,17.286,40.548,17.286c5.096,0,10.066-0.458,14.621-1.141c1.961-0.287,3.315-2.114,3.023-4.073
		c-0.292-1.963-2.114-3.323-4.078-3.025c-22.631,3.357-39.352-1.252-48.355-13.335c-10.838-14.548-9.147-37.895-1.873-53.447
		c7.771-16.613,18.784-27.512,31.846-31.517c11.315-3.469,23.707-1.476,35.836,5.768c25.183,15.04,4.375,61.042,4.161,61.5
		c-0.063,0.141-0.12,0.282-0.164,0.429c-1.527,4.857-6.86,8.96-11.649,8.96c-2.473,0-4.2-0.521-4.862-1.462
		c-0.836-1.189-0.412-3.493-0.083-4.399c0.019-0.054,0.039-0.107,0.056-0.166l3.109-9.578c0.153-0.424,0.299-0.848,0.434-1.277
		l5.927-17.92c0.139-0.443,0.265-0.886,0.38-1.335l4.507-13.72c0.619-1.885-0.407-3.917-2.289-4.531
		c-1.703-0.56-3.508,0.229-4.302,1.769c-0.256-0.414-0.524-0.823-0.816-1.223c-3.691-5.023-9.547-7.79-16.49-7.79
		c-13.973,0-28.034,10.626-32.012,24.18l-5.406,18.426c-2.039,6.953-1.074,13.788,2.646,18.758
		c3.598,4.804,9.306,7.449,16.068,7.449c7.379,0,14.867-3.133,20.85-8.141c0.251,1.198,0.713,2.417,1.505,3.567
		c2.098,3.035,5.725,4.574,10.78,4.574c7.834,0,15.88-6.027,18.426-13.763c0.792-1.759,5.951-13.583,8.017-27.479
		C479.881,1730.995,474.656,1716.13,461.74,1708.418z M417.27,1785.469c-4.446,0-8.112-1.622-10.322-4.575
		c-2.385-3.187-2.918-7.6-1.503-12.424l5.408-18.426c3.074-10.494,14.345-19.03,25.12-19.03c4.599,0,8.399,1.729,10.704,4.862
		c2.263,3.079,2.848,7.327,1.703,11.712l-6.3,19.186C438.671,1776.948,427.416,1785.469,417.27,1785.469z"/>
	<path style="fill:#FFFFFF;" d="M1610.061,349.395c-18.3-10.928-37.218-13.866-54.704-8.504
		c-19.793,6.068-36.265,22.129-47.641,46.45c-5.452,11.656-8.587,26.032-8.599,39.44c-0.012,15.861,4.153,29.846,12.041,40.438
		c13.179,17.681,33.937,22.711,53.291,22.711c6.697,0,13.23-0.602,19.218-1.493c2.577-0.38,4.356-2.782,3.971-5.359
		c-0.385-2.577-2.777-4.361-5.359-3.973c-29.741,4.412-51.717-1.647-63.551-17.525c-14.244-19.116-12.021-49.807-2.463-70.241
		c10.214-21.839,24.689-36.163,41.856-41.427c14.87-4.558,31.157-1.934,47.099,7.581c33.098,19.768,5.749,80.224,5.468,80.833
		c-0.083,0.183-0.156,0.373-0.214,0.56c-2.008,6.384-9.016,11.776-15.311,11.776c-3.249,0-5.52-0.682-6.389-1.922
		c-1.099-1.562-0.543-4.59-0.11-5.781c0.025-0.071,0.051-0.144,0.073-0.215l4.085-12.597c0.202-0.553,0.395-1.113,0.57-1.676
		l7.791-23.545c0.18-0.587,0.348-1.169,0.499-1.756l5.922-18.037c0.814-2.475-0.534-5.142-3.008-5.956
		c-2.239-0.731-4.612,0.304-5.654,2.329c-0.336-0.548-0.689-1.087-1.072-1.608c-4.85-6.602-12.548-10.238-21.673-10.238
		c-18.363,0-36.843,13.961-42.073,31.783l-7.104,24.217c-2.679,9.132-1.41,18.114,3.476,24.645
		c4.731,6.314,12.231,9.795,21.118,9.795c9.698,0,19.539-4.114,27.403-10.701c0.331,1.574,0.938,3.179,1.978,4.687
		c2.757,3.99,7.525,6.015,14.168,6.015c10.297,0,20.87-7.924,24.217-18.093c1.04-2.309,7.822-17.849,10.536-36.114
		C1633.902,379.071,1627.032,359.531,1610.061,349.395z M1551.613,450.661c-5.844,0-10.66-2.136-13.566-6.012
		c-3.133-4.187-3.834-9.99-1.973-16.333l7.106-24.214c4.042-13.788,18.855-25.003,33.016-25.003c6.046,0,11.04,2.268,14.068,6.389
		c2.974,4.047,3.744,9.627,2.239,15.389l-8.28,25.213C1579.739,439.457,1564.948,450.661,1551.613,450.661z"/>
</g>
<g>
	<g>
		<g>
			<g>
				<g>
					<path style="fill:#F8F2E4;" d="M943.799,869.502c-2.124,0-4.097-1.362-4.777-3.493L758.151,299.617
						c-0.407-1.267-0.29-2.643,0.319-3.825c0.609-1.181,1.664-2.073,2.933-2.478l351.017-112.091
						c0.497-0.161,1.011-0.239,1.525-0.239c0.792,0,1.581,0.188,2.299,0.558l109.848,56.674c1.181,0.612,2.073,1.664,2.477,2.933
						l154.284,483.133c0.407,1.267,0.29,2.643-0.319,3.825c-0.609,1.181-1.664,2.073-2.933,2.478L945.324,869.261
						C944.817,869.424,944.303,869.502,943.799,869.502z"/>
					<path style="fill:#0E3847;" d="M1113.946,186.001l109.848,56.674l154.284,483.133L943.799,864.484l-180.87-566.392
						L1113.946,186.001 M1113.946,175.969c-1.026,0-2.056,0.156-3.053,0.475L759.876,288.535c-2.533,0.809-4.643,2.592-5.863,4.958
						c-1.221,2.363-1.45,5.116-0.641,7.652l180.87,566.392c1.362,4.263,5.306,6.982,9.554,6.982c1.011,0,2.039-0.154,3.055-0.477
						l434.278-138.676c2.534-0.809,4.643-2.592,5.864-4.957c1.218-2.366,1.45-5.116,0.641-7.652l-154.284-483.133
						c-0.809-2.533-2.592-4.643-4.958-5.864l-109.848-56.674C1117.11,176.344,1115.532,175.969,1113.946,175.969L1113.946,175.969z"
						/>
				</g>
			</g>
			<g>
				<g>
					<path style="fill:#F8F2E4;" d="M1137.078,280.974c-0.792,0-1.581-0.188-2.3-0.558c-1.271-0.656-2.202-1.824-2.558-3.208
						l-23.133-89.957c-0.492-1.915,0.185-3.939,1.73-5.172c0.908-0.724,2.015-1.094,3.128-1.094c0.784,0,1.574,0.183,2.299,0.558
						l109.848,56.674c1.756,0.906,2.816,2.76,2.709,4.733c-0.109,1.973-1.367,3.7-3.211,4.407l-86.716,33.284
						C1138.296,280.864,1137.688,280.974,1137.078,280.974z"/>
					<g>
						<path style="fill:#0E3847;" d="M1113.946,186.001l109.848,56.674l-86.715,33.284L1113.946,186.001 M1113.949,175.969
							c-2.229,0-4.444,0.741-6.256,2.188c-3.091,2.465-4.446,6.514-3.461,10.344l23.133,89.958c0.711,2.77,2.572,5.104,5.116,6.416
							c1.437,0.741,3.016,1.116,4.599,1.116c1.215,0,2.434-0.222,3.596-0.665l86.715-33.283c3.691-1.418,6.205-4.87,6.421-8.816
							c0.217-3.946-1.905-7.654-5.417-9.467l-109.848-56.674C1117.093,176.337,1115.517,175.969,1113.949,175.969L1113.949,175.969z
							"/>
					</g>
				</g>
			</g>
			
				<line style="fill:#F8F2E4;stroke:#0E3847;stroke-width:10.0318;stroke-linecap:round;stroke-linejoin:round;stroke-miterlimit:10;" x1="875.541" y1="409.328" x2="1169.904" y2="315.327"/>
			
				<line style="fill:#F8F2E4;stroke:#0E3847;stroke-width:10.0318;stroke-linecap:round;stroke-linejoin:round;stroke-miterlimit:10;" x1="891.829" y1="460.334" x2="1186.191" y2="366.333"/>
			
				<line style="fill:#F8F2E4;stroke:#0E3847;stroke-width:10.0318;stroke-linecap:round;stroke-linejoin:round;stroke-miterlimit:10;" x1="908.116" y1="511.335" x2="1202.476" y2="417.336"/>
			
				<line style="fill:#F8F2E4;stroke:#0E3847;stroke-width:10.0318;stroke-linecap:round;stroke-linejoin:round;stroke-miterlimit:10;" x1="924.408" y1="562.343" x2="1218.763" y2="468.344"/>
			
				<line style="fill:#F8F2E4;stroke:#0E3847;stroke-width:10.0318;stroke-linecap:round;stroke-linejoin:round;stroke-miterlimit:10;" x1="940.693" y1="613.349" x2="1235.053" y2="519.345"/>
			
				<line style="fill:#F8F2E4;stroke:#0E3847;stroke-width:10.0318;stroke-linecap:round;stroke-linejoin:round;stroke-miterlimit:10;" x1="956.982" y1="664.354" x2="1251.34" y2="570.35"/>
			
				<line style="fill:#F8F2E4;stroke:#0E3847;stroke-width:10.0318;stroke-linecap:round;stroke-linejoin:round;stroke-miterlimit:10;" x1="973.27" y1="715.355" x2="1267.628" y2="621.359"/>
			
				<line style="fill:#F8F2E4;stroke:#0E3847;stroke-width:10.0318;stroke-linecap:round;stroke-linejoin:round;stroke-miterlimit:10;" x1="989.557" y1="766.36" x2="1283.915" y2="672.361"/>
		</g>
		<g>
			<g>
				<g>
					<path style="fill:#F8F2E4;" d="M1404.523,1206.181c-0.477,0-0.955-0.068-1.42-0.209l-437.216-129.1
						c-2.658-0.785-4.175-3.572-3.391-6.232l168.371-570.226c0.646-2.183,2.643-3.598,4.808-3.598c0.471,0,0.948,0.068,1.423,0.207
						l353.393,104.342c1.276,0.378,2.351,1.245,2.986,2.414l59.074,108.579c0.636,1.169,0.78,2.541,0.405,3.817l-143.621,486.41
						c-0.378,1.272-1.245,2.348-2.414,2.982C1406.177,1205.972,1405.354,1206.181,1404.523,1206.181z"/>
					<path style="fill:#0E3847;" d="M1135.678,501.834l353.393,104.343l59.074,108.579l-143.621,486.407l-437.216-129.1
						L1135.678,501.834 M1135.673,491.8c-4.331,0-8.326,2.828-9.617,7.194l-168.369,570.229c-1.572,5.31,1.466,10.894,6.779,12.463
						l437.217,129.1c0.93,0.273,1.888,0.409,2.84,0.409c1.659,0,3.311-0.409,4.794-1.218c2.338-1.272,4.073-3.42,4.828-5.973
						l143.619-486.407c0.755-2.55,0.463-5.298-0.809-7.635l-59.074-108.579c-1.272-2.338-3.418-4.073-5.971-4.828l-353.392-104.34
						C1137.571,491.935,1136.613,491.8,1135.673,491.8L1135.673,491.8z"/>
				</g>
			</g>
			<g>
				<g>
					<path style="fill:#F8F2E4;" d="M1548.144,719.771c-0.38,0-0.762-0.044-1.142-0.131l-90.445-21.15
						c-1.393-0.326-2.58-1.23-3.264-2.487c-0.682-1.257-0.797-2.745-0.314-4.091l31.371-87.429c0.668-1.861,2.365-3.157,4.336-3.308
						c0.129-0.009,0.258-0.014,0.388-0.014c1.824,0,3.52,0.996,4.404,2.619l59.074,108.579c0.943,1.737,0.782,3.866-0.417,5.437
						C1551.172,719.058,1549.689,719.771,1548.144,719.771z"/>
					<g>
						<path style="fill:#0E3847;" d="M1489.07,606.177l59.074,108.579l-90.445-21.15L1489.07,606.177 M1489.073,596.145
							c-0.256,0-0.514,0.01-0.772,0.029c-3.941,0.304-7.337,2.894-8.672,6.614l-31.371,87.429c-0.967,2.692-0.738,5.671,0.631,8.182
							c1.366,2.514,3.742,4.321,6.526,4.974l90.445,21.15c0.76,0.178,1.528,0.263,2.285,0.263c3.089,0,6.056-1.427,7.98-3.951
							c2.395-3.145,2.721-7.403,0.831-10.875l-59.074-108.579C1496.118,598.138,1492.724,596.145,1489.073,596.145L1489.073,596.145
							z"/>
					</g>
				</g>
			</g>
			
				<line style="fill:#F8F2E4;stroke:#0E3847;stroke-width:10.0318;stroke-linecap:round;stroke-linejoin:round;stroke-miterlimit:10;" x1="1166.398" y1="657.112" x2="1462.756" y2="744.614"/>
			
				<line style="fill:#F8F2E4;stroke:#0E3847;stroke-width:10.0318;stroke-linecap:round;stroke-linejoin:round;stroke-miterlimit:10;" x1="1151.237" y1="708.461" x2="1447.594" y2="795.963"/>
			
				<line style="fill:#F8F2E4;stroke:#0E3847;stroke-width:10.0318;stroke-linecap:round;stroke-linejoin:round;stroke-miterlimit:10;" x1="1136.077" y1="759.81" x2="1432.43" y2="847.315"/>
			
				<line style="fill:#F8F2E4;stroke:#0E3847;stroke-width:10.0318;stroke-linecap:round;stroke-linejoin:round;stroke-miterlimit:10;" x1="1120.913" y1="811.164" x2="1417.268" y2="898.664"/>
			
				<line style="fill:#F8F2E4;stroke:#0E3847;stroke-width:10.0318;stroke-linecap:round;stroke-linejoin:round;stroke-miterlimit:10;" x1="1105.751" y1="862.515" x2="1402.109" y2="950.015"/>
			
				<line style="fill:#F8F2E4;stroke:#0E3847;stroke-width:10.0318;stroke-linecap:round;stroke-linejoin:round;stroke-miterlimit:10;" x1="1090.587" y1="913.867" x2="1386.945" y2="1001.37"/>
			
				<line style="fill:#F8F2E4;stroke:#0E3847;stroke-width:10.0318;stroke-linecap:round;stroke-linejoin:round;stroke-miterlimit:10;" x1="1075.43" y1="965.214" x2="1371.783" y2="1052.716"/>
			
				<line style="fill:#F8F2E4;stroke:#0E3847;stroke-width:10.0318;stroke-linecap:round;stroke-linejoin:round;stroke-miterlimit:10;" x1="1060.266" y1="1016.565" x2="1356.619" y2="1104.067"/>
		</g>
		<g>
			<g>
				<g>
					<g>
						<path style="fill:#F8F2E4;" d="M744.249,1149.773c-2.353,0-4.614-1.316-5.712-3.571L567.468,794.648
							c-0.735-1.513-0.84-3.257-0.292-4.847c0.551-1.594,1.71-2.899,3.223-3.638L921.955,615.1c0.894-0.434,1.841-0.641,2.772-0.641
							c2.353,0,4.614,1.313,5.712,3.572l171.066,351.551c0.736,1.513,0.841,3.257,0.292,4.85c-0.55,1.591-1.71,2.896-3.223,3.635
							L747.021,1149.13C746.127,1149.568,745.179,1149.773,744.249,1149.773z"/>
						<path style="fill:#0E3847;" d="M924.732,620.808l171.066,351.551l-351.554,171.066L573.176,791.871L924.732,620.808
							 M924.722,608.111c-1.863,0-3.756,0.412-5.544,1.281L567.622,780.455c-3.028,1.474-5.345,4.09-6.443,7.272
							c-1.099,3.181-0.889,6.67,0.585,9.698l171.068,351.553c2.195,4.517,6.716,7.142,11.423,7.142c1.863,0,3.756-0.414,5.544-1.281
							l351.553-171.068c3.028-1.471,5.345-4.087,6.444-7.269c1.101-3.181,0.889-6.67-0.582-9.698L936.147,615.253
							C933.95,610.737,929.429,608.111,924.722,608.111L924.722,608.111z"/>
					</g>
				</g>
				<g>
					<g>
						<path style="fill:#61CAE5;" d="M737.406,1042.884c-0.699,0-1.398-0.115-2.07-0.346c-1.593-0.55-2.899-1.71-3.637-3.223
							l-111-228.12c-0.736-1.513-0.841-3.257-0.292-4.85c0.55-1.591,1.71-2.897,3.223-3.635l278.499-135.514
							c0.894-0.433,1.842-0.641,2.772-0.641c2.353,0,4.614,1.313,5.712,3.571l111.003,228.115c0.736,1.513,0.841,3.257,0.292,4.85
							c-0.55,1.591-1.71,2.897-3.223,3.635l-278.502,135.519C739.309,1042.67,738.359,1042.884,737.406,1042.884z"/>
						<g>
							<path style="fill:#0E3847;" d="M904.905,672.905l111.003,228.115l-278.502,135.519l-111-228.12L904.905,672.905
								 M904.895,660.208c-1.863,0-3.756,0.412-5.544,1.281l-278.5,135.517c-3.028,1.471-5.345,4.087-6.443,7.269
								c-1.099,3.182-0.889,6.67,0.582,9.698l111.001,228.12c1.474,3.028,4.09,5.345,7.271,6.443
								c1.344,0.465,2.745,0.697,4.143,0.697c1.908,0,3.808-0.429,5.554-1.281l278.502-135.516c3.028-1.474,5.345-4.09,6.443-7.271
								c1.099-3.182,0.889-6.67-0.582-9.698L916.318,667.351C914.123,662.834,909.602,660.208,904.895,660.208L904.895,660.208z"/>
						</g>
					</g>
				</g>
				<g>
					<g>
						<path style="fill:#FAF2B6;" d="M741.252,866.901c-15.846,0-29.995-8.846-36.927-23.089
							c-4.796-9.859-5.469-20.994-1.893-31.356c3.579-10.361,10.979-18.709,20.838-23.506c5.654-2.75,11.688-4.146,17.934-4.146
							c15.849,0,29.997,8.848,36.927,23.091c9.9,20.351,1.401,44.962-18.947,54.862
							C753.533,865.507,747.499,866.901,741.252,866.901z"/>
						<path style="fill:#0E3847;" d="M741.204,791.152c12.86,0,25.215,7.179,31.22,19.52c8.383,17.23,1.213,37.995-16.017,46.377
							c-4.887,2.378-10.061,3.506-15.155,3.506c-12.86,0-25.213-7.179-31.22-19.52c-8.387-17.232-1.218-37.995,16.015-46.377
							C730.936,792.277,736.11,791.152,741.204,791.152 M741.204,778.458L741.204,778.458c-7.218,0-14.185,1.61-20.711,4.784
							c-11.383,5.537-19.927,15.177-24.058,27.142c-4.131,11.964-3.357,24.823,2.185,36.205c7.881,16.195,24.616,26.66,42.633,26.66
							c7.218,0,14.185-1.61,20.709-4.787c23.496-11.427,33.308-39.846,21.878-63.344
							C775.959,788.923,759.223,778.458,741.204,778.458L741.204,778.458z"/>
					</g>
				</g>
				<g>
					<g>
						<path style="fill:#31BBA3;" d="M741.969,1040.665c-1.179,0-2.356-0.329-3.386-0.979c-1.859-1.172-2.977-3.221-2.96-5.416
							c0.032-4.063,1.114-99.86,29.99-131.648c6.509-7.167,17.493-10.65,33.578-10.65c51.968,0,142.274,37.152,146.094,38.733
							c2.307,0.955,3.84,3.177,3.915,5.674c0.075,2.495-1.321,4.804-3.567,5.898l-200.887,97.75
							C743.867,1040.453,742.916,1040.665,741.969,1040.665z"/>
						<path style="fill:#0E3847;" d="M799.194,898.318c51.3-0.002,143.662,38.251,143.662,38.251l-200.887,97.751
							c0,0,0.762-97.071,28.341-127.429C775.873,900.763,786.224,898.32,799.194,898.318 M799.199,885.626c-0.003,0-0.003,0-0.003,0
							c-17.978,0-30.502,4.163-38.282,12.728c-29.973,32.994-31.556,125.434-31.639,135.865c-0.034,4.392,2.205,8.492,5.919,10.836
							c2.061,1.301,4.414,1.959,6.775,1.959c1.895,0,3.795-0.424,5.554-1.279l200.887-97.753c4.492-2.185,7.284-6.802,7.133-11.796
							c-0.149-4.993-3.216-9.435-7.83-11.344C943.847,923.241,852.414,885.626,799.199,885.626L799.199,885.626z"/>
					</g>
				</g>
				<g>
					<g>
						<path style="fill:#31BBA3;" d="M815.018,1005.118c-1.328,0-2.648-0.417-3.756-1.23c-1.9-1.396-2.87-3.727-2.521-6.056
							c0.865-5.754,21.457-141.236,49.995-172.658c4.66-5.128,11.335-7.727,19.844-7.727c44.462,0,137.407,75.444,141.341,78.657
							c1.678,1.369,2.543,3.498,2.293,5.649c-0.251,2.151-1.581,4.027-3.528,4.974l-200.89,97.753
							C816.913,1004.909,815.963,1005.118,815.018,1005.118z"/>
						<path style="fill:#0E3847;" d="M878.579,823.795c42.713-0.007,137.329,77.225,137.329,77.225l-200.89,97.753
							c0,0,20.842-138.971,48.416-169.331C867.008,825.508,872.221,823.795,878.579,823.795 M878.586,811.101h-0.008
							c-12.92,0.002-20.477,5.332-24.54,9.805c-29.315,32.277-49.381,161.37-51.573,175.984c-0.7,4.66,1.24,9.325,5.04,12.115
							c2.219,1.629,4.858,2.462,7.516,2.462c1.89,0,3.788-0.421,5.552-1.279l200.89-97.753c3.895-1.895,6.553-5.646,7.055-9.948
							c0.499-4.302-1.228-8.561-4.582-11.301C1013.893,882.988,924.498,811.101,878.586,811.101L878.586,811.101z"/>
					</g>
				</g>
			</g>
			<g>
				<g>
					
						<rect x="823.409" y="644.151" transform="matrix(0.8992 -0.4375 0.4375 0.8992 -274.4551 487.9602)" style="fill:#E6E7E8;" width="196.773" height="390.963"/>
				</g>
			</g>
		</g>
		<g>
			<path style="fill:#F2982E;" d="M773.138,1748.646c-3.357,0-6.078-2.719-6.078-6.075v-427.831c0-3.357,2.721-6.076,6.078-6.076
				h702.519c3.357,0,6.078,2.719,6.078,6.076v427.831c0,3.357-2.721,6.075-6.078,6.075H773.138z"/>
			<path style="fill:#0E3847;" d="M1475.657,1314.741v427.831H773.138v-427.831H1475.657 M1475.657,1302.585H773.138
				c-6.714,0-12.154,5.442-12.154,12.156v427.831c0,6.714,5.44,12.156,12.154,12.156h702.519c6.714,0,12.154-5.442,12.154-12.156
				v-427.831C1487.811,1308.027,1482.371,1302.585,1475.657,1302.585L1475.657,1302.585z"/>
		</g>
		<g>
			<path style="fill:#F2982E;" d="M773.138,1320.816c-2.643,0-4.982-1.705-5.788-4.224c-0.806-2.519,0.11-5.267,2.26-6.802
				l351.257-250.378c1.055-0.753,2.292-1.13,3.527-1.13s2.473,0.378,3.527,1.13l351.263,250.378
				c2.151,1.535,3.067,4.282,2.261,6.802c-0.806,2.519-3.145,4.224-5.788,4.224H773.138z"/>
			<g>
				<path style="fill:#0E3847;" d="M1124.394,1064.36l351.263,250.38H773.138L1124.394,1064.36 M1124.394,1052.207
					c-2.473,0-4.943,0.75-7.055,2.256l-351.256,250.383c-4.305,3.064-6.131,8.565-4.521,13.598c1.61,5.033,6.29,8.453,11.576,8.453
					h702.519c5.286,0,9.966-3.42,11.576-8.453c1.61-5.033-0.217-10.534-4.521-13.598l-351.263-250.383
					C1129.339,1052.96,1126.867,1052.207,1124.394,1052.207L1124.394,1052.207z"/>
			</g>
		</g>
		<g>
			<g>
				<path style="fill:#F8F2E4;" d="M848.204,1635.741c-3.357,0-6.078-2.719-6.078-6.076V909.297c0-3.357,2.721-6.078,6.078-6.078
					h446.442c1.612,0,3.157,0.641,4.297,1.781l105.892,105.894c1.14,1.14,1.781,2.684,1.781,4.297v614.474
					c0,3.357-2.721,6.076-6.078,6.076H848.204z"/>
				<path style="fill:#0E3847;" d="M1294.646,909.297l105.892,105.894v614.474H848.204V909.297H1294.646 M1294.646,897.144H848.204
					c-6.714,0-12.153,5.44-12.153,12.153v720.369c0,6.714,5.44,12.156,12.153,12.156h552.334c6.714,0,12.153-5.442,12.153-12.156
					v-614.474c0-3.223-1.279-6.314-3.559-8.595L1303.24,900.703C1300.96,898.423,1297.869,897.144,1294.646,897.144
					L1294.646,897.144z"/>
			</g>
			<g>
				<g>
					<path style="fill:#F8F2E4;" d="M1288.188,1027.727c-1.608,0-3.155-0.638-4.297-1.781c-1.225-1.225-1.868-2.916-1.771-4.645
						l6.458-112.352c0.139-2.392,1.666-4.478,3.905-5.33c0.704-0.268,1.435-0.4,2.163-0.4c1.583,0,3.135,0.619,4.297,1.781
						l105.892,105.894c1.693,1.693,2.234,4.224,1.381,6.46c-0.853,2.239-2.938,3.766-5.33,3.905
						C1400.886,1021.26,1288.302,1027.727,1288.188,1027.727z"/>
					<g>
						<path style="fill:#0E3847;" d="M1294.646,909.297l105.892,105.894l-112.35,6.458L1294.646,909.297 M1294.643,897.141
							c-1.452,0-2.919,0.26-4.324,0.799c-4.475,1.703-7.532,5.879-7.807,10.661l-6.458,112.352c-0.2,3.459,1.089,6.84,3.54,9.291
							c2.285,2.285,5.381,3.559,8.594,3.559c0.231,0,0.463-0.005,0.697-0.02l112.35-6.458c4.782-0.275,8.957-3.33,10.66-7.807
							c1.705-4.475,0.624-9.535-2.763-12.921L1303.24,900.703C1300.918,898.381,1297.81,897.141,1294.643,897.141L1294.643,897.141z
							"/>
					</g>
				</g>
			</g>
			
				<line style="fill:#F8F2E4;stroke:#0E3847;stroke-width:12.1543;stroke-linecap:round;stroke-linejoin:round;stroke-miterlimit:10;" x1="937.178" y1="1079.181" x2="1311.564" y2="1079.181"/>
			
				<line style="fill:#F8F2E4;stroke:#0E3847;stroke-width:12.1543;stroke-linecap:round;stroke-linejoin:round;stroke-miterlimit:10;" x1="937.178" y1="1144.058" x2="1311.564" y2="1144.058"/>
			
				<line style="fill:#F8F2E4;stroke:#0E3847;stroke-width:12.1543;stroke-linecap:round;stroke-linejoin:round;stroke-miterlimit:10;" x1="937.178" y1="1208.924" x2="1311.564" y2="1208.924"/>
			
				<line style="fill:#F8F2E4;stroke:#0E3847;stroke-width:12.1543;stroke-linecap:round;stroke-linejoin:round;stroke-miterlimit:10;" x1="937.178" y1="1273.795" x2="1311.564" y2="1273.795"/>
			
				<line style="fill:#F8F2E4;stroke:#0E3847;stroke-width:12.1543;stroke-linecap:round;stroke-linejoin:round;stroke-miterlimit:10;" x1="937.178" y1="1338.667" x2="1311.564" y2="1338.667"/>
			
				<line style="fill:#F8F2E4;stroke:#0E3847;stroke-width:12.1543;stroke-linecap:round;stroke-linejoin:round;stroke-miterlimit:10;" x1="937.178" y1="1403.534" x2="1311.564" y2="1403.534"/>
			
				<line style="fill:#F8F2E4;stroke:#0E3847;stroke-width:12.1543;stroke-linecap:round;stroke-linejoin:round;stroke-miterlimit:10;" x1="937.178" y1="1468.41" x2="1311.564" y2="1468.41"/>
			
				<line style="fill:#F8F2E4;stroke:#0E3847;stroke-width:12.1543;stroke-linecap:round;stroke-linejoin:round;stroke-miterlimit:10;" x1="937.178" y1="1533.277" x2="1311.564" y2="1533.277"/>
		</g>
		<g>
			<path style="fill:#F8C02C;" d="M773.138,1748.646c-3.357,0-6.078-2.719-6.078-6.075v-427.831c0-2.276,1.272-4.36,3.293-5.403
				c0.877-0.453,1.832-0.672,2.785-0.672c1.242,0,2.477,0.38,3.527,1.125l347.729,247.866l347.736-247.866
				c1.05-0.745,2.285-1.125,3.527-1.125c0.952,0,1.907,0.219,2.784,0.672c2.022,1.043,3.294,3.128,3.294,5.403v427.831
				c0,3.357-2.721,6.075-6.078,6.075H773.138z"/>
			<g>
				<path style="fill:#0E3847;" d="M1475.657,1314.741v427.831H773.138v-427.831l351.256,250.38L1475.657,1314.741
					 M1475.657,1302.585c-2.484,0-4.955,0.76-7.054,2.26l-344.209,245.347l-344.202-245.347c-2.097-1.501-4.572-2.26-7.054-2.26
					c-1.903,0-3.813,0.448-5.567,1.349c-4.046,2.085-6.587,6.256-6.587,10.806v427.831c0,6.714,5.44,12.156,12.154,12.156h702.519
					c6.714,0,12.154-5.442,12.154-12.156v-427.831c0-4.551-2.541-8.721-6.587-10.806
					C1479.47,1303.033,1477.56,1302.585,1475.657,1302.585L1475.657,1302.585z"/>
			</g>
		</g>
		<g>
			<path style="fill:#FCD428;" d="M773.138,1748.646c-2.724,0-5.116-1.812-5.852-4.433c-0.736-2.621,0.363-5.418,2.69-6.831
				l351.256-213.912c0.972-0.595,2.066-0.887,3.162-0.887c1.096,0,2.19,0.292,3.162,0.887l351.263,213.912
				c2.326,1.413,3.425,4.21,2.69,6.831c-0.736,2.621-3.128,4.433-5.852,4.433H773.138z"/>
			<g>
				<path style="fill:#0E3847;" d="M1124.394,1528.658l351.263,213.913H773.138L1124.394,1528.658 M1124.394,1516.502
					c-2.19,0-4.38,0.594-6.322,1.774l-351.256,213.912c-4.653,2.836-6.853,8.419-5.382,13.666c1.472,5.242,6.254,8.872,11.703,8.872
					h702.519c5.45,0,10.231-3.63,11.703-8.872c1.471-5.247-0.728-10.831-5.381-13.666l-351.263-213.912
					C1128.774,1517.097,1126.584,1516.502,1124.394,1516.502L1124.394,1516.502z"/>
			</g>
		</g>
	</g>
	<g>
		<g>
			<g>
				<path style="fill:#61CAE5;" d="M1469.75,1942.827c-6.726,0-16.645-2.299-25.707-13.237l-72.92-88.048l-19.586,16.224
					c-6.148,5.091-12.76,7.781-19.118,7.781c-11.968,0-20.935-9.033-23.403-23.571l-29.288-172.671
					c-1.613-9.476,0.175-17.865,5.037-23.624c4.188-4.96,10.419-7.693,17.547-7.693c3.912,0,8.061,0.804,12.331,2.392
					l164.193,60.969c10.526,3.902,17.408,11.113,18.882,19.775c1.471,8.672-2.646,17.754-11.299,24.916l-19.588,16.229l72.92,88.043
					c12.981,15.678,11.34,34.801-4.088,47.59l-44.104,36.521C1484.922,1939.919,1477.38,1942.827,1469.75,1942.827L1469.75,1942.827
					z"/>
				<path style="fill:#0E3847;" d="M1302.312,1645.495c2.943,0,6.212,0.619,9.72,1.919l164.193,60.969
					c16.672,6.183,19.108,20.531,5.408,31.878l-25.369,21.013l77.707,93.826c11.349,13.705,7.912,27.897-3.096,37.023
					l-44.102,36.521c-5.13,4.249-11.033,6.675-17.023,6.675c-6.874,0-13.863-3.196-19.927-10.519l-77.71-93.826l-25.364,21.013
					c-4.952,4.098-9.895,6.056-14.331,6.056c-7.844,0-14.102-6.12-16.005-17.325l-29.288-172.671
					C1284.77,1654.197,1291.262,1645.495,1302.312,1645.495 M1302.312,1630.484c-9.376,0-17.644,3.678-23.281,10.353
					c-6.312,7.479-8.692,18.036-6.702,29.729l29.286,172.661c3.077,18.12,15.167,29.827,30.803,29.827
					c8.127,0,16.392-3.289,23.902-9.506l13.807-11.44l68.136,82.265c8.521,10.29,19.703,15.956,31.485,15.956
					c9.398,0,18.597-3.503,26.597-10.124l44.102-36.521c18.592-15.41,20.68-39.322,5.084-58.158l-68.134-82.27l13.81-11.434
					c10.772-8.926,15.841-20.57,13.907-31.956c-1.934-11.381-10.563-20.697-23.673-25.559l-164.186-60.964
					C1312.146,1631.444,1307.118,1630.484,1302.312,1630.484L1302.312,1630.484z"/>
			</g>
		</g>
		<g>
			<g>
				<path style="fill:#E6E7E8;" d="M1476.225,1708.384l-164.193-60.969c-8.751-3.249-15.995-2.231-20.473,2.003l216.595,261.522
					l22.721-18.816c11.008-9.125,14.446-23.318,3.096-37.023l-77.707-93.826l25.369-21.013
					C1495.334,1728.915,1492.897,1714.566,1476.225,1708.384z"/>
			</g>
		</g>
	</g>
	<g>
		
			<line style="fill:none;stroke:#FFFFFF;stroke-width:12.9411;stroke-linecap:round;stroke-miterlimit:10;stroke-dasharray:11.2833,2.8208,18.8055;" x1="1212.812" y1="1589.257" x2="1261.316" y2="1638.319"/>
		
			<line style="fill:none;stroke:#FFFFFF;stroke-width:12.9411;stroke-linecap:round;stroke-miterlimit:10;stroke-dasharray:11.2833,2.8208,18.8055;" x1="1309.583" y1="1549.822" x2="1309.196" y2="1618.811"/>
		
			<line style="fill:none;stroke:#FFFFFF;stroke-width:12.9411;stroke-linecap:round;stroke-miterlimit:10;stroke-dasharray:11.2833,2.8208,18.8055;" x1="1172.257" y1="1685.568" x2="1241.246" y2="1685.958"/>
		
			<line style="fill:none;stroke:#FFFFFF;stroke-width:12.9411;stroke-linecap:round;stroke-miterlimit:10;stroke-dasharray:11.2833,2.8208,18.8055;" x1="1253.994" y1="1561.306" x2="1281.688" y2="1624.492"/>
		
			<line style="fill:none;stroke:#FFFFFF;stroke-width:12.9411;stroke-linecap:round;stroke-miterlimit:10;stroke-dasharray:11.2833,2.8208,18.8055;" x1="1358.468" y1="1559.182" x2="1333.386" y2="1623.449"/>
		
			<line style="fill:none;stroke:#FFFFFF;stroke-width:12.9411;stroke-linecap:round;stroke-miterlimit:10;stroke-dasharray:11.2833,2.8208,18.8055;" x1="1183.733" y1="1741.168" x2="1246.924" y2="1713.46"/>
		
			<line style="fill:none;stroke:#FFFFFF;stroke-width:12.9411;stroke-linecap:round;stroke-miterlimit:10;stroke-dasharray:11.2833,2.8208,18.8055;" x1="1181.612" y1="1636.682" x2="1245.889" y2="1661.782"/>
	</g>
</g>
</svg>
